<svg width="123" height="28" viewBox="0 0 123 28" fill="none" xmlns="http://www.w3.org/2000/svg">
<path d="M22.4365 0.263311C22.6665 0.17131 22.9425 0.10231 23.2645 0.0563105C23.5865 0.0103102 23.8932 0.0103102 24.1845 0.0563105C24.4758 0.10231 24.7135 0.21731 24.8975 0.40131C25.0815 0.569977 25.1582 0.845977 25.1275 1.22931C25.0968 1.62798 24.9588 2.02664 24.7135 2.42531C24.4682 2.82398 24.2535 3.19198 24.0695 3.52931C23.7628 4.06598 23.4332 4.58731 23.0805 5.09331C22.7432 5.59931 22.3828 6.10531 21.9995 6.61131C21.3555 7.48531 20.6962 8.34398 20.0215 9.18731C19.3622 10.0306 18.7105 10.8893 18.0665 11.7633C17.7598 12.1926 17.4532 12.6296 17.1465 13.0743C16.8398 13.519 16.5485 13.9713 16.2725 14.4313C16.1958 14.554 16.1115 14.692 16.0195 14.8453C15.9275 14.9833 15.8355 15.129 15.7435 15.2823C15.6362 15.4816 15.5365 15.6963 15.4445 15.9263C15.3525 16.1563 15.2835 16.3786 15.2375 16.5933C15.1915 16.808 15.1838 17.0073 15.2145 17.1913C15.2605 17.36 15.3678 17.4826 15.5365 17.5593C15.7358 17.636 15.9505 17.6743 16.1805 17.6743C16.4105 17.659 16.6328 17.613 16.8475 17.5363C17.0775 17.4596 17.2922 17.3676 17.4915 17.2603C17.6908 17.1376 17.8672 17.0073 18.0205 16.8693C18.3118 16.5933 18.6032 16.2636 18.8945 15.8803C18.9712 15.773 19.0632 15.727 19.1705 15.7423C19.2778 15.7576 19.3622 15.8036 19.4235 15.8803C19.5002 15.957 19.5462 16.0566 19.5615 16.1793C19.5922 16.2866 19.5615 16.3863 19.4695 16.4783C19.4235 16.5396 19.3468 16.6393 19.2395 16.7773C19.1475 16.9 19.0402 17.0303 18.9175 17.1683C18.8102 17.291 18.7105 17.406 18.6185 17.5133C18.5418 17.6053 18.4958 17.659 18.4805 17.6743C18.2352 17.935 17.9362 18.211 17.5835 18.5023C17.2462 18.7783 16.8782 19.0083 16.4795 19.1923C16.0962 19.3763 15.6975 19.476 15.2835 19.4913C14.8848 19.5066 14.5092 19.3763 14.1565 19.1003C13.7578 18.7936 13.5048 18.4103 13.3975 17.9503C13.3055 17.4903 13.3285 17.0226 13.4665 16.5473C13.5278 16.3173 13.6582 16.0106 13.8575 15.6273C14.0568 15.2286 14.3022 14.7916 14.5935 14.3163C14.8848 13.841 15.2145 13.335 15.5825 12.7983C15.9505 12.2616 16.3338 11.7326 16.7325 11.2113C16.8858 11.012 16.8858 10.8586 16.7325 10.7513C16.5792 10.6286 16.4028 10.5596 16.2035 10.5443C16.0502 10.529 15.8968 10.529 15.7435 10.5443C15.5902 10.5596 15.4522 10.575 15.3295 10.5903C14.5475 10.667 13.8652 10.8586 13.2825 11.1653C12.6998 11.4566 12.1248 11.8323 11.5575 12.2923C11.1128 12.737 10.6682 13.1893 10.2235 13.6493C9.77883 14.094 9.33417 14.5386 8.8895 14.9833C8.55217 15.3206 8.20717 15.658 7.8545 15.9953C7.51717 16.3326 7.17217 16.6546 6.8195 16.9613C6.8195 16.9613 6.7275 17.0456 6.5435 17.2143C6.3595 17.383 6.12183 17.5823 5.8305 17.8123C5.53917 18.0423 5.21717 18.28 4.8645 18.5253C4.51183 18.7706 4.16683 18.97 3.8295 19.1233C3.47683 19.292 3.1395 19.3916 2.8175 19.4223C2.51083 19.453 2.14283 19.4606 1.7135 19.4453C1.60617 19.4453 1.45283 19.4223 1.2535 19.3763C1.0695 19.3303 0.8855 19.2536 0.7015 19.1463C0.5175 19.039 0.3565 18.9086 0.2185 18.7553C0.0805 18.602 0.0115 18.418 0.0115 18.2033C-0.00383333 18.1573 -0.00383333 18.096 0.0115 18.0193C0.0115 17.9273 0.0268333 17.866 0.0575 17.8353C0.134167 17.6666 0.249167 17.521 0.4025 17.3983C0.571167 17.2603 0.785833 17.199 1.0465 17.2143C1.2765 17.2143 1.46817 17.2756 1.6215 17.3983C1.77483 17.5056 1.9205 17.6206 2.0585 17.7433C2.1965 17.866 2.34983 17.9656 2.5185 18.0423C2.7025 18.1036 2.9325 18.0883 3.2085 17.9963C3.51517 17.889 3.86017 17.705 4.2435 17.4443C4.64217 17.1836 5.01783 16.9153 5.3705 16.6393C5.7385 16.348 6.0605 16.0873 6.3365 15.8573C6.6125 15.612 6.78117 15.4663 6.8425 15.4203C6.90383 15.359 6.9575 15.3053 7.0035 15.2593C7.06483 15.198 7.12617 15.1443 7.1875 15.0983C7.26417 15.0216 7.33317 14.968 7.3945 14.9373C7.9005 14.4466 8.39883 13.956 8.8895 13.4653C9.38017 12.9593 9.87083 12.4456 10.3615 11.9243C10.4382 11.817 10.4918 11.725 10.5225 11.6483C10.5532 11.5563 10.5455 11.495 10.4995 11.4643C10.4688 11.4336 10.4075 11.426 10.3155 11.4413C10.2388 11.4413 10.1468 11.449 10.0395 11.4643C9.9475 11.4796 9.8555 11.5026 9.7635 11.5333C9.68683 11.564 9.6255 11.587 9.5795 11.6023C9.54883 11.6023 9.52583 11.61 9.5105 11.6253C9.49517 11.6253 9.47217 11.6253 9.4415 11.6253C9.18083 11.7173 8.9355 11.8246 8.7055 11.9473C8.49083 12.0546 8.2685 12.1696 8.0385 12.2923C7.86983 12.369 7.72417 12.4533 7.6015 12.5453C7.47883 12.6373 7.31017 12.691 7.0955 12.7063C6.65083 12.7063 6.36717 12.4763 6.2445 12.0163C6.22917 11.9243 6.2445 11.8553 6.2905 11.8093C6.35183 11.61 6.5435 11.426 6.8655 11.2573C7.20283 11.0733 7.5555 10.9123 7.9235 10.7743C8.30683 10.6363 8.6595 10.529 8.9815 10.4523C9.31883 10.3603 9.52583 10.3066 9.6025 10.2913C9.7405 10.2453 9.8785 10.2146 10.0165 10.1993C10.1698 10.1686 10.3078 10.138 10.4305 10.1073C10.7372 9.98464 11.0362 9.90031 11.3275 9.85431C11.6342 9.79298 11.9408 9.67031 12.2475 9.48631C12.5542 9.31764 12.8302 9.11831 13.0755 8.88831C13.3362 8.64298 13.5968 8.39764 13.8575 8.15231C14.4708 7.47764 15.0765 6.81831 15.6745 6.17431C16.2878 5.53031 16.9165 4.88631 17.5605 4.24231C17.9132 3.90498 18.2735 3.54464 18.6415 3.16131C19.0248 2.76264 19.4158 2.37931 19.8145 2.01131C20.2132 1.64331 20.6272 1.30598 21.0565 0.999311C21.5012 0.692643 21.9612 0.44731 22.4365 0.263311ZM22.0685 4.15031C22.1298 4.04298 22.2065 3.89731 22.2985 3.71331C22.4058 3.52931 22.4748 3.34531 22.5055 3.16131C22.5515 2.97731 22.5438 2.80864 22.4825 2.65531C22.4212 2.50198 22.2678 2.39464 22.0225 2.33331C21.8845 2.31798 21.7388 2.32564 21.5855 2.35631C21.4322 2.37164 21.2942 2.41764 21.1715 2.49431C20.9568 2.61698 20.7575 2.74731 20.5735 2.88531C20.3895 3.02331 20.2055 3.17664 20.0215 3.34531C19.8528 3.51398 19.6842 3.69031 19.5155 3.87431C19.3468 4.04298 19.1782 4.21164 19.0095 4.38031L18.5035 4.88631C18.4268 4.99364 18.3348 5.10098 18.2275 5.20831C18.1355 5.30031 18.0512 5.39231 17.9745 5.48431C17.5145 6.00564 17.0468 6.51931 16.5715 7.02531C16.0962 7.51598 15.6285 8.02198 15.1685 8.54331C14.9692 8.75798 14.8618 8.96498 14.8465 9.16431C14.8312 9.34831 15.0382 9.46331 15.4675 9.50931C15.6822 9.53998 15.9045 9.55531 16.1345 9.55531C16.3645 9.53998 16.5868 9.51698 16.8015 9.48631C16.9702 9.47098 17.1158 9.45564 17.2385 9.44031C17.3765 9.42498 17.5068 9.40198 17.6295 9.37131C17.8902 9.24864 18.1278 9.09531 18.3425 8.91131C18.5572 8.71198 18.7718 8.50498 18.9865 8.29031C19.2012 8.01431 19.4158 7.73064 19.6305 7.43931C19.8605 7.14798 20.0905 6.84898 20.3205 6.54231C20.5352 6.26631 20.7498 5.99031 20.9645 5.71431C21.1945 5.43831 21.4168 5.15464 21.6315 4.86331C21.7082 4.74064 21.7772 4.62564 21.8385 4.51831C21.9152 4.39564 21.9918 4.27298 22.0685 4.15031Z" fill="#203757"/>
<path d="M28.5184 10.6823C28.595 10.805 28.6027 10.9276 28.5414 11.0503C28.4801 11.1576 28.388 11.2343 28.2654 11.2803C27.8667 11.4336 27.4144 11.4873 26.9084 11.4413C26.4177 11.38 25.95 11.3186 25.5054 11.2573C25.398 11.2573 25.2907 11.288 25.1834 11.3493C25.0147 11.426 24.8691 11.541 24.7464 11.6943C24.4244 12.1543 24.087 12.6526 23.7344 13.1893C23.397 13.726 23.075 14.2396 22.7684 14.7303C22.477 15.2056 22.224 15.6196 22.0094 15.9723C21.81 16.325 21.6874 16.5473 21.6414 16.6393C21.58 16.808 21.5264 16.9996 21.4804 17.2143C21.4497 17.4136 21.4727 17.5746 21.5494 17.6973C21.6414 17.8506 21.7487 17.9503 21.8714 17.9963C22.0094 18.0423 22.1551 18.0576 22.3084 18.0423C22.4771 18.027 22.6457 17.9886 22.8144 17.9273C22.983 17.866 23.1364 17.8046 23.2744 17.7433C23.2897 17.728 23.305 17.7203 23.3204 17.7203C23.3357 17.705 23.351 17.6896 23.3664 17.6743C23.7037 17.4596 24.0104 17.2143 24.2864 16.9383C24.593 16.647 24.8844 16.3173 25.1604 15.9493C25.2524 15.842 25.3444 15.796 25.4364 15.8113C25.5437 15.8113 25.628 15.8496 25.6894 15.9263C25.766 16.003 25.812 16.1026 25.8274 16.2253C25.858 16.3326 25.8274 16.44 25.7354 16.5473C25.6587 16.6546 25.5591 16.7773 25.4364 16.9153C25.3137 17.0533 25.1757 17.2066 25.0224 17.3753C24.8077 17.636 24.5777 17.889 24.3324 18.1343C24.087 18.3796 23.8264 18.6096 23.5504 18.8243C23.2897 19.0236 23.006 19.1846 22.6994 19.3073C22.408 19.43 22.1091 19.4913 21.8024 19.4913C21.3884 19.4913 21.051 19.4146 20.7904 19.2613C20.545 19.0926 20.361 18.8856 20.2384 18.6403C20.1157 18.395 20.0467 18.1343 20.0314 17.8583C20.0314 17.5823 20.062 17.3293 20.1234 17.0993C20.2 16.8693 20.315 16.601 20.4684 16.2943C20.6217 15.9723 20.798 15.6503 20.9974 15.3283C21.1967 15.0063 21.396 14.692 21.5954 14.3853C21.81 14.0633 22.0017 13.7873 22.1704 13.5573C22.2011 13.496 22.1934 13.4576 22.1474 13.4423C22.1014 13.427 22.0554 13.45 22.0094 13.5113C21.5954 14.002 21.1354 14.5386 20.6294 15.1213C20.1387 15.704 19.6941 16.2406 19.2954 16.7313C19.2187 16.8386 19.1267 16.8923 19.0194 16.8923C18.912 16.877 18.8277 16.831 18.7664 16.7543C18.6897 16.6776 18.6437 16.5856 18.6284 16.4783C18.5977 16.3556 18.6207 16.2406 18.6974 16.1333C18.866 15.9186 19.096 15.6503 19.3874 15.3283C19.6787 15.0063 20.0007 14.6536 20.3534 14.2703C20.7214 13.8716 21.097 13.4576 21.4804 13.0283C21.879 12.5836 22.27 12.139 22.6534 11.6943C22.6994 11.6176 22.7377 11.5333 22.7684 11.4413C22.799 11.3493 22.799 11.265 22.7684 11.1883C22.753 11.127 22.6687 11.081 22.5154 11.0503C22.3927 11.035 22.27 11.0273 22.1474 11.0273C22.04 11.0273 21.9327 11.0196 21.8254 11.0043C21.672 11.0043 21.5264 11.0043 21.3884 11.0043C21.2504 11.0043 21.1124 11.012 20.9744 11.0273C20.8364 11.0273 20.7291 10.9736 20.6524 10.8663C20.5757 10.8203 20.522 10.7513 20.4914 10.6593C20.4607 10.5673 20.453 10.483 20.4684 10.4063C20.499 10.3143 20.545 10.2453 20.6064 10.1993C20.6677 10.138 20.752 10.1073 20.8594 10.1073C21.0587 10.1226 21.2427 10.138 21.4114 10.1533C21.5954 10.1533 21.7794 10.161 21.9634 10.1763C22.3314 10.1763 22.6764 10.1993 22.9984 10.2453C23.1364 10.2453 23.2667 10.23 23.3894 10.1993C23.5121 10.1686 23.6347 10.138 23.7574 10.1073C23.9261 10.046 24.0564 9.95398 24.1484 9.83131C24.2557 9.70864 24.3707 9.59364 24.4934 9.48631V9.46331C24.8307 9.06464 25.1144 8.70431 25.3444 8.38231C25.5897 8.06031 25.766 7.80731 25.8734 7.62331C26.134 7.20931 26.3947 6.81064 26.6554 6.42731C26.9314 6.04398 27.2457 5.80631 27.5984 5.71431C27.8897 5.62231 28.1197 5.64531 28.2884 5.78331C28.457 5.90598 28.5337 6.12064 28.5184 6.42731C28.503 6.68798 28.4111 6.93331 28.2424 7.16331C28.0737 7.37798 27.9127 7.59264 27.7594 7.80731C27.4834 8.15998 27.1997 8.51264 26.9084 8.86531C26.617 9.21798 26.3334 9.57064 26.0574 9.92331C25.9807 9.99998 25.9271 10.0766 25.8964 10.1533C25.8811 10.23 25.8964 10.2836 25.9424 10.3143C26.019 10.345 26.1034 10.3603 26.1954 10.3603C26.2874 10.345 26.364 10.3373 26.4254 10.3373H26.4714C26.6554 10.3066 26.847 10.276 27.0464 10.2453C27.2457 10.1993 27.4374 10.184 27.6214 10.1993C27.8054 10.1993 27.974 10.2376 28.1274 10.3143C28.2807 10.3756 28.411 10.4983 28.5184 10.6823Z" fill="#203757"/>
<path d="M34.0939 6.61131C34.2626 7.02531 34.2856 7.45464 34.1629 7.89931C34.0402 8.32864 33.8486 8.75031 33.5879 9.16431C33.3426 9.57831 33.0589 9.97698 32.7369 10.3603C32.4149 10.7283 32.1389 11.0503 31.9089 11.3263C31.1269 12.2616 30.2759 13.082 29.3559 13.7873C28.4512 14.4926 27.5389 15.2286 26.6189 15.9953C26.5422 16.118 26.4732 16.233 26.4119 16.3403C26.3659 16.4323 26.3122 16.532 26.2509 16.6393C26.1896 16.8233 26.1512 16.9996 26.1359 17.1683C26.1206 17.337 26.1512 17.4903 26.2279 17.6283C26.3046 17.7663 26.4042 17.866 26.5269 17.9273C26.6649 17.9733 26.8029 17.9963 26.9409 17.9963C27.0942 17.9963 27.2476 17.9733 27.4009 17.9273C27.5696 17.8813 27.7229 17.8276 27.8609 17.7663C27.8762 17.751 27.9146 17.728 27.9759 17.6973C28.1446 17.5746 28.2979 17.452 28.4359 17.3293C28.5892 17.2066 28.7502 17.084 28.9189 16.9613C29.0876 16.7926 29.2409 16.6316 29.3789 16.4783C29.5322 16.3096 29.6702 16.1256 29.7929 15.9263C29.8696 15.819 29.9539 15.773 30.0459 15.7883C30.1532 15.8036 30.2452 15.8496 30.3219 15.9263C30.3986 16.003 30.4446 16.1026 30.4599 16.2253C30.4752 16.3326 30.4446 16.44 30.3679 16.5473C30.2759 16.67 30.1686 16.8003 30.0459 16.9383C29.9232 17.0763 29.7929 17.222 29.6549 17.3753C29.4402 17.636 29.2026 17.8966 28.9419 18.1573C28.6966 18.4026 28.4359 18.625 28.1599 18.8243C27.8992 19.0236 27.6156 19.1846 27.3089 19.3073C27.0176 19.43 26.7186 19.4913 26.4119 19.4913C25.9366 19.4913 25.5609 19.407 25.2849 19.2383C25.0242 19.0696 24.8326 18.8703 24.7099 18.6403C24.5719 18.395 24.5029 18.1343 24.5029 17.8583C24.5029 17.567 24.5412 17.3063 24.6179 17.0763C24.6792 16.8463 24.7789 16.5933 24.9169 16.3173C25.0549 16.0413 25.2159 15.7576 25.3999 15.4663C25.5839 15.175 25.7679 14.8836 25.9519 14.5923C26.1512 14.301 26.3429 14.0326 26.5269 13.7873C26.6036 13.6953 26.7569 13.4806 26.9869 13.1433C27.2169 12.7906 27.4852 12.3843 27.7919 11.9243C28.1139 11.4643 28.4512 10.9736 28.8039 10.4523C29.1566 9.91564 29.4862 9.41731 29.7929 8.95731C30.0996 8.49731 30.3679 8.09864 30.5979 7.76131C30.8279 7.42398 30.9812 7.21698 31.0579 7.14031C31.1806 6.97164 31.3109 6.81064 31.4489 6.65731C31.5869 6.48864 31.7402 6.35064 31.9089 6.24331C32.3536 5.89064 32.7676 5.72198 33.1509 5.73731C33.5496 5.73731 33.8639 6.02864 34.0939 6.61131ZM28.7809 13.1663C29.0876 12.8903 29.4172 12.5913 29.7699 12.2693C30.1226 11.932 30.4752 11.5793 30.8279 11.2113C31.1806 10.8433 31.5102 10.4676 31.8169 10.0843C32.1389 9.70098 32.4226 9.32531 32.6679 8.95731C32.7446 8.83464 32.8136 8.71198 32.8749 8.58931C32.9516 8.45131 33.0282 8.32098 33.1049 8.19831C33.1356 8.09098 33.1586 7.99898 33.1739 7.92231C33.1892 7.83031 33.1969 7.74598 33.1969 7.66931C33.1662 7.56198 33.1202 7.45464 33.0589 7.34731C32.9976 7.23998 32.9056 7.20164 32.7829 7.23231C32.7062 7.24764 32.6372 7.29364 32.5759 7.37031C32.5146 7.43164 32.4532 7.49298 32.3919 7.55431C32.2232 7.72298 31.9779 8.02198 31.6559 8.45131C31.3339 8.86531 30.9812 9.33298 30.5979 9.85431C30.2146 10.3756 29.8312 10.9046 29.4479 11.4413C29.0799 11.9626 28.7579 12.415 28.4819 12.7983C28.4052 12.921 28.3899 13.0053 28.4359 13.0513C28.4972 13.0973 28.5432 13.1356 28.5739 13.1663C28.6199 13.197 28.6889 13.197 28.7809 13.1663Z" fill="#203757"/>
<path d="M39.8709 15.9263C39.9629 15.819 40.0549 15.773 40.1469 15.7883C40.2542 15.8036 40.3462 15.8496 40.4229 15.9263C40.4995 15.9876 40.5455 16.0796 40.5609 16.2023C40.5915 16.3096 40.5609 16.417 40.4689 16.5243C40.3769 16.647 40.2619 16.7773 40.1239 16.9153C40.0012 17.0533 39.8709 17.2066 39.7329 17.3753C39.5029 17.636 39.2575 17.889 38.9969 18.1343C38.7515 18.3796 38.4832 18.602 38.1919 18.8013C37.9159 18.9853 37.6245 19.1463 37.3179 19.2843C37.0112 19.407 36.6969 19.476 36.3749 19.4913C35.9149 19.522 35.5315 19.4223 35.2249 19.1923C34.9182 18.9623 34.7112 18.671 34.6039 18.3183C34.5579 18.2263 34.4965 18.142 34.4199 18.0653C34.3585 17.9886 34.2665 17.9426 34.1439 17.9273C34.0672 17.9273 33.9905 17.9426 33.9139 17.9733C33.8525 18.004 33.7835 18.0346 33.7069 18.0653C33.5075 18.188 33.3235 18.303 33.1549 18.4103C32.9862 18.5176 32.8175 18.625 32.6489 18.7323C32.3882 18.8856 32.0969 19.039 31.7749 19.1923C31.4682 19.3303 31.1539 19.4223 30.8319 19.4683C30.5252 19.499 30.2339 19.4606 29.9579 19.3533C29.6819 19.2306 29.4595 18.9853 29.2909 18.6173C29.1375 18.2646 29.0992 17.9043 29.1759 17.5363C29.2372 17.153 29.3599 16.785 29.5439 16.4323C29.7279 16.0643 29.9502 15.727 30.2109 15.4203C30.4715 15.0983 30.7169 14.8223 30.9469 14.5923C31.1922 14.347 31.4759 14.1016 31.7979 13.8563C32.1352 13.611 32.4802 13.3886 32.8329 13.1893C33.2009 12.99 33.5765 12.8366 33.9599 12.7293C34.3585 12.622 34.7419 12.576 35.1099 12.5913C35.4932 12.6066 35.7999 12.7063 36.0299 12.8903C36.2599 13.059 36.4209 13.2813 36.5129 13.5573C36.5435 13.6186 36.5819 13.6723 36.6279 13.7183C36.6892 13.7643 36.7582 13.7796 36.8349 13.7643C36.9575 13.7643 37.0725 13.726 37.1799 13.6493C37.3945 13.4806 37.5709 13.312 37.7089 13.1433C37.8622 12.9593 38.0002 12.7906 38.1229 12.6373C38.2762 12.4993 38.4372 12.4686 38.6059 12.5453C38.7899 12.622 38.9202 12.7293 38.9969 12.8673C39.0582 12.944 39.0889 13.036 39.0889 13.1433C39.1349 13.2813 39.1425 13.4193 39.1119 13.5573C39.0812 13.6953 39.0199 13.8333 38.9279 13.9713C38.8359 14.1093 38.7285 14.2396 38.6059 14.3623C38.4832 14.485 38.3682 14.6 38.2609 14.7073C37.9695 14.9833 37.6705 15.29 37.3639 15.6273C37.0572 15.9493 36.7965 16.2866 36.5819 16.6393C36.4899 16.808 36.4285 16.9766 36.3979 17.1453C36.3672 17.314 36.3749 17.4673 36.4209 17.6053C36.4669 17.7433 36.5589 17.8506 36.6969 17.9273C36.8349 18.004 37.0189 18.027 37.2489 17.9963C37.4022 17.9503 37.5402 17.9043 37.6629 17.8583C37.7855 17.8123 37.8929 17.751 37.9849 17.6743C38.1689 17.567 38.3375 17.452 38.4909 17.3293C38.6442 17.1913 38.8052 17.061 38.9739 16.9383C39.1272 16.7696 39.2805 16.6086 39.4339 16.4553C39.5872 16.2866 39.7329 16.1103 39.8709 15.9263ZM34.1899 16.2713C34.2359 16.2253 34.3355 16.118 34.4889 15.9493C34.6422 15.7653 34.7879 15.566 34.9259 15.3513C35.0792 15.1213 35.1865 14.9066 35.2479 14.7073C35.3245 14.4926 35.3092 14.3316 35.2019 14.2243C34.9412 13.9636 34.6652 13.841 34.3739 13.8563C34.0979 13.8716 33.7989 13.9406 33.4769 14.0633C32.9862 14.2473 32.4955 14.5233 32.0049 14.8913C31.5142 15.244 31.1385 15.6656 30.8779 16.1563C30.7859 16.325 30.7322 16.5013 30.7169 16.6853C30.7015 16.8693 30.7245 17.038 30.7859 17.1913C30.8625 17.3446 30.9775 17.4673 31.1309 17.5593C31.2842 17.6513 31.4835 17.6896 31.7289 17.6743C31.9435 17.6743 32.1735 17.6206 32.4189 17.5133C32.6795 17.406 32.9019 17.2986 33.0859 17.1913C33.3005 17.0686 33.4922 16.9306 33.6609 16.7773C33.8449 16.624 34.0212 16.4553 34.1899 16.2713Z" fill="#203757"/>
<path d="M50.3709 15.9493C50.4629 15.842 50.5549 15.796 50.6469 15.8113C50.7542 15.8266 50.8462 15.8726 50.9229 15.9493C50.9996 16.0106 51.0456 16.1026 51.0609 16.2253C51.0762 16.3326 51.0456 16.44 50.9689 16.5473C50.8769 16.67 50.7619 16.8003 50.6239 16.9383C50.5012 17.0763 50.3709 17.2296 50.2329 17.3983C49.8802 17.7816 49.5046 18.1496 49.1059 18.5023C48.7072 18.8396 48.2779 19.1003 47.8179 19.2843C47.8026 19.2843 47.7872 19.292 47.7719 19.3073C47.7412 19.338 47.7259 19.3456 47.7259 19.3303C47.5112 19.4223 47.3042 19.476 47.1049 19.4913C46.9056 19.4913 46.7292 19.4606 46.5759 19.3993C46.5606 19.384 46.5452 19.3763 46.5299 19.3763C46.1772 19.223 45.9626 18.9776 45.8859 18.6403C45.8246 18.2876 45.8552 17.9426 45.9779 17.6053C46.0239 17.4366 46.0852 17.268 46.1619 17.0993C46.2539 16.9153 46.3612 16.7313 46.4839 16.5473C46.5759 16.3786 46.6679 16.2176 46.7599 16.0643C46.8672 15.911 46.9592 15.773 47.0359 15.6503C47.0666 15.5736 47.1049 15.497 47.1509 15.4203C47.2122 15.3283 47.2582 15.2286 47.2889 15.1213C47.3196 14.9833 47.3042 14.876 47.2429 14.7993C47.1969 14.7073 47.1202 14.646 47.0129 14.6153C46.9056 14.5693 46.7829 14.554 46.6449 14.5693C46.5222 14.5846 46.3996 14.623 46.2769 14.6843C46.0316 14.807 45.8092 14.968 45.6099 15.1673C45.4259 15.3666 45.2496 15.5583 45.0809 15.7423C44.9276 15.9263 44.7359 16.164 44.5059 16.4553C44.2912 16.7313 44.0766 17.015 43.8619 17.3063C43.6472 17.5976 43.4556 17.8583 43.2869 18.0883C43.1336 18.303 43.0492 18.4333 43.0339 18.4793C42.8959 18.7093 42.7272 18.924 42.5279 19.1233C42.3286 19.3073 42.0909 19.4223 41.8149 19.4683C41.6002 19.5143 41.4239 19.4836 41.2859 19.3763C41.1479 19.2536 41.0636 19.039 41.0329 18.7323C41.0329 18.625 41.0866 18.4793 41.1939 18.2953C41.3166 18.1113 41.4546 17.9196 41.6079 17.7203C41.7766 17.5056 41.9452 17.2986 42.1139 17.0993C42.2979 16.8846 42.4436 16.7006 42.5509 16.5473C42.6276 16.4553 42.7272 16.3173 42.8499 16.1333C42.9726 15.9493 43.0646 15.7653 43.1259 15.5813C43.2026 15.382 43.2256 15.2056 43.1949 15.0523C43.1796 14.8836 43.0569 14.761 42.8269 14.6843C42.5509 14.6076 42.2672 14.6843 41.9759 14.9143C41.6999 15.1443 41.4546 15.382 41.2399 15.6273C41.0559 15.8573 40.8796 16.072 40.7109 16.2713C40.5422 16.4706 40.3812 16.6546 40.2279 16.8233C40.1359 16.9153 40.0362 16.9613 39.9289 16.9613C39.8216 16.946 39.7296 16.9 39.6529 16.8233C39.5762 16.7466 39.5302 16.6546 39.5149 16.5473C39.4996 16.44 39.5379 16.3326 39.6299 16.2253C39.7066 16.118 39.8139 15.98 39.9519 15.8113C40.0899 15.6273 40.2356 15.4433 40.3889 15.2593C40.5576 15.06 40.7186 14.876 40.8719 14.7073C41.0406 14.5233 41.1862 14.37 41.3089 14.2473C41.5696 14.0173 41.8532 13.795 42.1599 13.5803C42.4666 13.3503 42.7579 13.197 43.0339 13.1203C43.2946 13.0436 43.5322 13.0513 43.7469 13.1433C43.9769 13.2353 44.1686 13.4423 44.3219 13.7643C44.3526 13.795 44.3679 13.8256 44.3679 13.8563C44.3679 13.8716 44.3756 13.8946 44.3909 13.9253C44.4676 14.0326 44.5289 14.1323 44.5749 14.2243C44.6362 14.301 44.7512 14.3393 44.9199 14.3393C45.1346 14.324 45.3569 14.2243 45.5869 14.0403C45.8169 13.841 46.0469 13.6416 46.2769 13.4423C46.6142 13.151 46.9746 12.9286 47.3579 12.7753C47.7566 12.6066 48.1322 12.5376 48.4849 12.5683C48.8376 12.6143 49.0906 12.7906 49.2439 13.0973C49.3972 13.3886 49.4432 13.6953 49.3819 14.0173C49.3512 14.1553 49.2899 14.301 49.1979 14.4543C49.1212 14.5923 49.0216 14.738 48.8989 14.8913C48.7302 15.152 48.5539 15.3973 48.3699 15.6273C48.2012 15.842 48.0402 16.0796 47.8869 16.3403C47.8102 16.4476 47.7336 16.578 47.6569 16.7313C47.5956 16.8846 47.5496 17.038 47.5189 17.1913C47.4882 17.3293 47.4959 17.4596 47.5419 17.5823C47.5879 17.705 47.6952 17.7816 47.8639 17.8123C47.9406 17.843 48.0249 17.8506 48.1169 17.8353C48.2089 17.8046 48.2932 17.774 48.3699 17.7433C48.4466 17.7126 48.5156 17.682 48.5769 17.6513C48.6382 17.6053 48.6996 17.567 48.7609 17.5363C48.8836 17.4443 48.9986 17.3523 49.1059 17.2603C49.2286 17.153 49.3436 17.0533 49.4509 16.9613C49.6196 16.7926 49.7806 16.6316 49.9339 16.4783C50.0872 16.3096 50.2329 16.1333 50.3709 15.9493Z" fill="#203757"/>
<path d="M60.0311 10.6823C60.1077 10.805 60.1154 10.9276 60.0541 11.0503C59.9927 11.1576 59.9007 11.2343 59.7781 11.2803C59.3794 11.4336 58.9271 11.4873 58.4211 11.4413C57.9304 11.38 57.4627 11.3186 57.0181 11.2573C56.9107 11.2573 56.8034 11.288 56.6961 11.3493C56.5274 11.426 56.3817 11.541 56.2591 11.6943C55.9371 12.1543 55.5997 12.6526 55.2471 13.1893C54.9097 13.726 54.5877 14.2396 54.2811 14.7303C53.9897 15.2056 53.7367 15.6196 53.5221 15.9723C53.3227 16.325 53.2001 16.5473 53.1541 16.6393C53.0927 16.808 53.0391 16.9996 52.9931 17.2143C52.9624 17.4136 52.9854 17.5746 53.0621 17.6973C53.1541 17.8506 53.2614 17.9503 53.3841 17.9963C53.5221 18.0423 53.6677 18.0576 53.8211 18.0423C53.9897 18.027 54.1584 17.9886 54.3271 17.9273C54.4957 17.866 54.6491 17.8046 54.7871 17.7433C54.8024 17.728 54.8177 17.7203 54.8331 17.7203C54.8484 17.705 54.8637 17.6896 54.8791 17.6743C55.2164 17.4596 55.5231 17.2143 55.7991 16.9383C56.1057 16.647 56.3971 16.3173 56.6731 15.9493C56.7651 15.842 56.8571 15.796 56.9491 15.8113C57.0564 15.8113 57.1407 15.8496 57.2021 15.9263C57.2787 16.003 57.3247 16.1026 57.3401 16.2253C57.3707 16.3326 57.3401 16.44 57.2481 16.5473C57.1714 16.6546 57.0717 16.7773 56.9491 16.9153C56.8264 17.0533 56.6884 17.2066 56.5351 17.3753C56.3204 17.636 56.0904 17.889 55.8451 18.1343C55.5997 18.3796 55.3391 18.6096 55.0631 18.8243C54.8024 19.0236 54.5187 19.1846 54.2121 19.3073C53.9207 19.43 53.6217 19.4913 53.3151 19.4913C52.9011 19.4913 52.5637 19.4146 52.3031 19.2613C52.0577 19.0926 51.8737 18.8856 51.7511 18.6403C51.6284 18.395 51.5594 18.1343 51.5441 17.8583C51.5441 17.5823 51.5747 17.3293 51.6361 17.0993C51.7127 16.8693 51.8277 16.601 51.9811 16.2943C52.1344 15.9723 52.3107 15.6503 52.5101 15.3283C52.7094 15.0063 52.9087 14.692 53.1081 14.3853C53.3227 14.0633 53.5144 13.7873 53.6831 13.5573C53.7137 13.496 53.7061 13.4576 53.6601 13.4423C53.6141 13.427 53.5681 13.45 53.5221 13.5113C53.1081 14.002 52.6481 14.5386 52.1421 15.1213C51.6514 15.704 51.2067 16.2406 50.8081 16.7313C50.7314 16.8386 50.6394 16.8923 50.5321 16.8923C50.4247 16.877 50.3404 16.831 50.2791 16.7543C50.2024 16.6776 50.1564 16.5856 50.1411 16.4783C50.1104 16.3556 50.1334 16.2406 50.2101 16.1333C50.3787 15.9186 50.6087 15.6503 50.9001 15.3283C51.1914 15.0063 51.5134 14.6536 51.8661 14.2703C52.2341 13.8716 52.6097 13.4576 52.9931 13.0283C53.3917 12.5836 53.7827 12.139 54.1661 11.6943C54.2121 11.6176 54.2504 11.5333 54.2811 11.4413C54.3117 11.3493 54.3117 11.265 54.2811 11.1883C54.2657 11.127 54.1814 11.081 54.0281 11.0503C53.9054 11.035 53.7827 11.0273 53.6601 11.0273C53.5527 11.0273 53.4454 11.0196 53.3381 11.0043C53.1847 11.0043 53.0391 11.0043 52.9011 11.0043C52.7631 11.0043 52.6251 11.012 52.4871 11.0273C52.3491 11.0273 52.2417 10.9736 52.1651 10.8663C52.0884 10.8203 52.0347 10.7513 52.0041 10.6593C51.9734 10.5673 51.9657 10.483 51.9811 10.4063C52.0117 10.3143 52.0577 10.2453 52.1191 10.1993C52.1804 10.138 52.2647 10.1073 52.3721 10.1073C52.5714 10.1226 52.7554 10.138 52.9241 10.1533C53.1081 10.1533 53.2921 10.161 53.4761 10.1763C53.8441 10.1763 54.1891 10.1993 54.5111 10.2453C54.6491 10.2453 54.7794 10.23 54.9021 10.1993C55.0247 10.1686 55.1474 10.138 55.2701 10.1073C55.4387 10.046 55.5691 9.95398 55.6611 9.83131C55.7684 9.70864 55.8834 9.59364 56.0061 9.48631V9.46331C56.3434 9.06464 56.6271 8.70431 56.8571 8.38231C57.1024 8.06031 57.2787 7.80731 57.3861 7.62331C57.6467 7.20931 57.9074 6.81064 58.1681 6.42731C58.4441 6.04398 58.7584 5.80631 59.1111 5.71431C59.4024 5.62231 59.6324 5.64531 59.8011 5.78331C59.9697 5.90598 60.0464 6.12064 60.0311 6.42731C60.0157 6.68798 59.9237 6.93331 59.7551 7.16331C59.5864 7.37798 59.4254 7.59264 59.2721 7.80731C58.9961 8.15998 58.7124 8.51264 58.4211 8.86531C58.1297 9.21798 57.8461 9.57064 57.5701 9.92331C57.4934 9.99998 57.4397 10.0766 57.4091 10.1533C57.3937 10.23 57.4091 10.2836 57.4551 10.3143C57.5317 10.345 57.6161 10.3603 57.7081 10.3603C57.8001 10.345 57.8767 10.3373 57.9381 10.3373H57.9841C58.1681 10.3066 58.3597 10.276 58.5591 10.2453C58.7584 10.1993 58.9501 10.184 59.1341 10.1993C59.3181 10.1993 59.4867 10.2376 59.6401 10.3143C59.7934 10.3756 59.9237 10.4983 60.0311 10.6823Z" fill="#203757"/>
<path d="M62.5936 15.9493C62.6703 15.842 62.7623 15.796 62.8696 15.8113C62.9769 15.8266 63.0613 15.8726 63.1226 15.9493C63.1993 16.0106 63.2453 16.1026 63.2606 16.2253C63.2913 16.3326 63.2683 16.44 63.1916 16.5473C63.1456 16.6086 63.0153 16.7696 62.8006 17.0303C62.6013 17.291 62.3636 17.5746 62.0876 17.8813C61.8269 18.188 61.5433 18.4793 61.2366 18.7553C60.9453 19.016 60.6846 19.1923 60.4546 19.2843C60.4393 19.2843 60.4239 19.292 60.4086 19.3073C60.3779 19.338 60.3626 19.3456 60.3626 19.3303C60.2553 19.3763 60.0866 19.4223 59.8566 19.4683C59.6419 19.499 59.4119 19.4913 59.1666 19.4453C58.9213 19.3993 58.6913 19.292 58.4766 19.1233C58.2773 18.9546 58.1469 18.6863 58.0856 18.3183C58.0243 18.027 58.0319 17.751 58.1086 17.4903C58.2006 17.2296 58.3079 16.969 58.4306 16.7083C58.4766 16.647 58.5379 16.5473 58.6146 16.4093C58.6913 16.2713 58.7756 16.1333 58.8676 15.9953C58.9596 15.842 59.0439 15.6963 59.1206 15.5583C59.2126 15.4203 59.2816 15.313 59.3276 15.2363C59.4656 15.0216 59.5806 14.8223 59.6726 14.6383C59.7799 14.439 59.7416 14.3086 59.5576 14.2473C59.4963 14.232 59.4119 14.2626 59.3046 14.3393C59.1973 14.416 59.0746 14.5233 58.9366 14.6613C58.8139 14.7993 58.6759 14.9526 58.5226 15.1213C58.3846 15.29 58.2389 15.4586 58.0856 15.6273C57.8863 15.842 57.7023 16.0566 57.5336 16.2713C57.3649 16.4706 57.1963 16.6546 57.0276 16.8233C56.9356 16.9153 56.8359 16.9613 56.7286 16.9613C56.6366 16.946 56.5523 16.9 56.4756 16.8233C56.3989 16.7466 56.3529 16.6546 56.3376 16.5473C56.3223 16.44 56.3529 16.3326 56.4296 16.2253C56.5523 16.072 56.7363 15.8573 56.9816 15.5813C57.2423 15.29 57.4799 15.0216 57.6946 14.7763C57.8479 14.6076 58.0013 14.4466 58.1546 14.2933C58.3079 14.14 58.4229 14.025 58.4996 13.9483C58.8523 13.5956 59.1359 13.3273 59.3506 13.1433C59.5806 12.9593 59.7723 12.829 59.9256 12.7523C60.0943 12.6603 60.2399 12.6143 60.3626 12.6143C60.4853 12.599 60.6233 12.5913 60.7766 12.5913C60.8993 12.5913 61.0066 12.645 61.0986 12.7523C61.1906 12.8443 61.2673 12.9593 61.3286 13.0973C61.3899 13.2353 61.4283 13.3886 61.4436 13.5573C61.4743 13.726 61.4819 13.887 61.4666 14.0403C61.4359 14.1783 61.3669 14.3546 61.2596 14.5693C61.1676 14.784 61.0526 15.0063 60.9146 15.2363C60.7919 15.451 60.6616 15.6656 60.5236 15.8803C60.4009 16.0796 60.3013 16.2406 60.2246 16.3633C60.1633 16.4706 60.0866 16.624 59.9946 16.8233C59.9026 17.0073 59.8259 17.199 59.7646 17.3983C59.7186 17.5823 59.7109 17.751 59.7416 17.9043C59.7723 18.0576 59.8873 18.142 60.0866 18.1573C60.2859 18.1726 60.5159 18.0883 60.7766 17.9043C61.0373 17.705 61.2903 17.475 61.5356 17.2143C61.7809 16.9536 61.9956 16.7006 62.1796 16.4553C62.3789 16.21 62.5169 16.0413 62.5936 15.9493ZM61.0066 10.6133C60.9759 10.5366 60.9529 10.4676 60.9376 10.4063C60.9223 10.345 60.9069 10.276 60.8916 10.1993C60.8916 10.046 60.8993 9.93098 60.9146 9.85431C60.9453 9.65498 61.0373 9.50164 61.1906 9.39431C61.2673 9.31764 61.3363 9.26398 61.3976 9.23331C61.4743 9.20264 61.5509 9.17198 61.6276 9.14131C61.7043 9.11064 61.7886 9.09531 61.8806 9.09531C61.9879 9.09531 62.0876 9.11064 62.1796 9.14131C62.3483 9.18731 62.4939 9.28698 62.6166 9.44031C62.7546 9.57831 62.8389 9.73164 62.8696 9.90031C62.9156 10.115 62.9003 10.3296 62.8236 10.5443C62.7623 10.759 62.6243 10.92 62.4096 11.0273C62.2256 11.1193 62.0263 11.1576 61.8116 11.1423C61.6123 11.1116 61.4283 11.0273 61.2596 10.8893C61.2596 10.874 61.2519 10.8663 61.2366 10.8663C61.1293 10.805 61.0526 10.7206 61.0066 10.6133Z" fill="#203757"/>
<path d="M69.9263 15.8803C70.0183 15.773 70.118 15.727 70.2253 15.7423C70.3326 15.7576 70.4246 15.8036 70.5013 15.8803C70.578 15.9416 70.624 16.0336 70.6393 16.1563C70.67 16.2636 70.647 16.371 70.5703 16.4783C70.4783 16.601 70.3633 16.7313 70.2253 16.8693C70.0873 17.0073 69.9416 17.1606 69.7883 17.3293C69.7116 17.406 69.5583 17.5516 69.3283 17.7663C69.1136 17.981 68.8606 18.1956 68.5693 18.4103C68.2013 18.6863 67.772 18.9316 67.2813 19.1463C66.806 19.361 66.2003 19.476 65.4643 19.4913C64.9276 19.5066 64.4293 19.4683 63.9693 19.3763C63.5093 19.269 63.1413 19.062 62.8653 18.7553C62.5893 18.4333 62.4053 18.1036 62.3133 17.7663C62.2213 17.429 62.1983 17.0916 62.2443 16.7543C62.2903 16.417 62.39 16.095 62.5433 15.7883C62.712 15.4663 62.9113 15.1673 63.1413 14.8913C63.54 14.3853 63.9923 13.9483 64.4983 13.5803C65.0043 13.2123 65.61 12.921 66.3153 12.7063C66.5146 12.6603 66.7753 12.622 67.0973 12.5913C67.4193 12.5606 67.703 12.5683 67.9483 12.6143C68.5463 12.7216 68.9296 12.9976 69.0983 13.4423C69.1903 13.6723 69.221 13.9176 69.1903 14.1783C69.175 14.4236 69.106 14.6383 68.9833 14.8223C68.5846 15.451 68.025 15.842 67.3043 15.9953C67.1816 16.026 67.082 16.0183 67.0053 15.9723C66.9286 15.911 66.8673 15.842 66.8213 15.7653C66.7906 15.6733 66.7753 15.5813 66.7753 15.4893C66.7906 15.3973 66.8366 15.3206 66.9133 15.2593C66.9286 15.2286 66.944 15.2133 66.9593 15.2133C66.9746 15.198 66.99 15.1826 67.0053 15.1673C67.2506 14.9986 67.4116 14.8376 67.4883 14.6843C67.5803 14.531 67.611 14.4006 67.5803 14.2933C67.565 14.1706 67.5036 14.071 67.3963 13.9943C67.3043 13.9176 67.2046 13.864 67.0973 13.8333C66.898 13.7873 66.668 13.8103 66.4073 13.9023C66.1466 13.9943 65.886 14.1246 65.6253 14.2933C65.3646 14.4466 65.1193 14.6306 64.8893 14.8453C64.6593 15.0446 64.4753 15.2286 64.3373 15.3973C64.276 15.4586 64.1993 15.5506 64.1073 15.6733C64.0306 15.796 63.9616 15.9416 63.9003 16.1103C63.8543 16.2636 63.8236 16.44 63.8083 16.6393C63.8083 16.8386 63.862 17.0456 63.9693 17.2603C64.1686 17.613 64.46 17.8583 64.8433 17.9963C65.242 18.119 65.6636 18.165 66.1083 18.1343C66.5683 18.1036 67.0206 18.004 67.4653 17.8353C67.9253 17.6513 68.3163 17.429 68.6383 17.1683L68.9833 16.8923C69.3206 16.5856 69.635 16.2483 69.9263 15.8803Z" fill="#203757"/>
<path d="M88.1984 0.0793102C88.9038 0.186644 89.4634 0.477977 89.8774 0.95331C90.2914 1.42864 90.4601 2.02664 90.3834 2.74731C90.3374 3.13064 90.2301 3.49864 90.0614 3.85131C89.9081 4.18864 89.7241 4.51064 89.5094 4.81731C89.3868 5.04731 89.2488 5.26198 89.0954 5.46131C88.9574 5.66064 88.7888 5.86764 88.5894 6.08231C88.4668 6.20498 88.3211 6.34298 88.1524 6.49631C87.9991 6.64964 87.8304 6.78764 87.6464 6.91031C87.4624 7.03298 87.2631 7.13264 87.0484 7.20931C86.8491 7.27064 86.6498 7.27064 86.4504 7.20931C86.2358 7.16331 86.0901 7.07898 86.0134 6.95631C85.9368 6.83364 85.9061 6.70331 85.9214 6.56531C85.9368 6.42731 85.9828 6.28931 86.0594 6.15131C86.1361 5.99798 86.2358 5.86764 86.3584 5.76031C86.6804 5.51498 87.0331 5.27731 87.4164 5.04731C87.8151 4.80198 88.1448 4.51831 88.4054 4.19631C88.5588 3.93564 88.6661 3.65964 88.7274 3.36831C88.8041 3.07698 88.8118 2.80864 88.7504 2.56331C88.6891 2.30264 88.5511 2.08798 88.3364 1.91931C88.1218 1.75064 87.8074 1.65098 87.3934 1.62031C87.0868 1.60498 86.7648 1.63564 86.4274 1.71231C86.0901 1.78898 85.7528 1.89631 85.4154 2.03431C85.0934 2.15698 84.7714 2.29498 84.4494 2.44831C84.1428 2.60164 83.8591 2.74731 83.5984 2.88531C81.4211 4.00464 79.5504 5.52264 77.9864 7.43931C77.5724 7.92998 77.1814 8.44364 76.8134 8.98031C76.4454 9.51698 76.1311 10.0766 75.8704 10.6593C75.7631 10.8893 75.6711 11.1653 75.5944 11.4873C75.5178 11.794 75.4948 12.093 75.5254 12.3843C75.5561 12.6756 75.6558 12.9286 75.8244 13.1433C75.9931 13.358 76.2768 13.4806 76.6754 13.5113C76.8441 13.5113 77.0204 13.4883 77.2044 13.4423C77.4038 13.3963 77.6031 13.3426 77.8024 13.2813H77.8254C78.1781 13.174 78.5308 13.036 78.8834 12.8673C79.2361 12.6833 79.5811 12.4916 79.9184 12.2923C80.2711 12.093 80.6008 11.8936 80.9074 11.6943C81.2141 11.495 81.4978 11.311 81.7584 11.1423C81.9424 11.035 82.1264 10.9123 82.3104 10.7743C82.5098 10.6363 82.7168 10.483 82.9314 10.3143C83.1614 10.0843 83.4144 9.88498 83.6904 9.71631C83.9664 9.54764 84.2731 9.44031 84.6104 9.39431C84.8558 9.34831 85.1471 9.34064 85.4844 9.37131C85.8371 9.38664 86.0901 9.50164 86.2434 9.71631C86.3354 9.83898 86.3661 9.96931 86.3354 10.1073C86.3048 10.2453 86.2434 10.3833 86.1514 10.5213C86.0594 10.6593 85.9521 10.7973 85.8294 10.9353C85.7068 11.058 85.6148 11.1653 85.5534 11.2573C85.2468 11.656 84.9324 12.0623 84.6104 12.4763C84.2884 12.8903 83.9664 13.3043 83.6444 13.7183C83.6444 13.7183 83.6368 13.726 83.6214 13.7413C83.0388 14.554 82.4408 15.359 81.8274 16.1563C81.3674 16.739 80.9074 17.3293 80.4474 17.9273C79.9874 18.51 79.5044 19.085 78.9984 19.6523C78.5078 20.2196 77.9941 20.764 77.4574 21.2853C76.9208 21.8066 76.3534 22.2896 75.7554 22.7343C75.2648 23.1176 74.7358 23.455 74.1684 23.7463C73.6011 24.0376 73.0108 24.26 72.3974 24.4133C71.7841 24.5666 71.1631 24.6356 70.5344 24.6203C69.9058 24.6203 69.2924 24.513 68.6944 24.2983C67.9124 24.007 67.2454 23.5546 66.6934 22.9413C66.1261 22.328 65.7581 21.6303 65.5894 20.8483C65.5434 20.6183 65.5051 20.3806 65.4744 20.1353C65.4438 19.89 65.4591 19.6446 65.5204 19.3993C65.5204 19.3533 65.5358 19.2996 65.5664 19.2383C65.5664 19.223 65.5741 19.2153 65.5894 19.2153V19.1923C65.6354 19.085 65.6891 18.9853 65.7504 18.8933C65.8118 18.8013 65.9038 18.7016 66.0264 18.5943C66.1184 18.533 66.2258 18.4716 66.3484 18.4103C66.4711 18.3336 66.6014 18.28 66.7394 18.2493C66.8774 18.2033 67.0154 18.188 67.1534 18.2033C67.2914 18.2033 67.4064 18.257 67.4984 18.3643C67.5904 18.4716 67.6364 18.5943 67.6364 18.7323C67.6364 18.855 67.6211 18.9776 67.5904 19.1003C67.5138 19.453 67.4448 19.7826 67.3834 20.0893C67.3068 20.4113 67.3068 20.7486 67.3834 21.1013C67.4754 21.4846 67.6288 21.8066 67.8434 22.0673C68.0428 22.3433 68.2881 22.5656 68.5794 22.7343C68.8708 22.903 69.1928 23.0256 69.5454 23.1023C69.8828 23.179 70.2278 23.225 70.5804 23.2403C71.2398 23.2403 71.8684 23.1253 72.4664 22.8953C73.0798 22.6806 73.6624 22.3893 74.2144 22.0213C74.7664 21.6533 75.2878 21.224 75.7784 20.7333C76.2844 20.2426 76.7598 19.729 77.2044 19.1923C77.6951 18.6096 78.1704 18.0193 78.6304 17.4213C79.1058 16.8233 79.5734 16.2176 80.0334 15.6043C80.1101 15.497 80.1714 15.3896 80.2174 15.2823C80.2788 15.175 80.3478 15.06 80.4244 14.9373C80.4704 14.8606 80.5318 14.738 80.6084 14.5693C80.7004 14.4006 80.7618 14.2396 80.7924 14.0863C80.8231 13.933 80.8078 13.8103 80.7464 13.7183C80.6851 13.6263 80.5318 13.611 80.2864 13.6723C80.2711 13.6723 80.2174 13.6876 80.1254 13.7183C79.9874 13.795 79.8418 13.864 79.6884 13.9253C79.5351 13.9866 79.3818 14.0556 79.2284 14.1323C78.8911 14.2703 78.5231 14.4006 78.1244 14.5233C77.7411 14.6306 77.3501 14.7073 76.9514 14.7533C76.5681 14.784 76.1848 14.7686 75.8014 14.7073C75.4334 14.6306 75.0884 14.4773 74.7664 14.2473C74.2451 13.8793 73.9154 13.4423 73.7774 12.9363C73.6548 12.4303 73.6624 11.8936 73.8004 11.3263C73.9384 10.759 74.1761 10.184 74.5134 9.60131C74.8508 9.01864 75.2188 8.45898 75.6174 7.92231C76.0314 7.38564 76.4378 6.89498 76.8364 6.45031C77.2351 6.00564 77.5724 5.63764 77.8484 5.34631C78.4464 4.68698 79.1441 4.01231 79.9414 3.32231C80.7388 2.63231 81.5898 2.02664 82.4944 1.50531C83.3991 0.968644 84.3344 0.56231 85.3004 0.28631C86.2818 -0.00502291 87.2478 -0.0740229 88.1984 0.0793102Z" fill="#203757"/>
<path d="M90.2183 15.9953C90.3103 15.888 90.4023 15.842 90.4943 15.8573C90.6016 15.8573 90.6936 15.8956 90.7703 15.9723C90.847 16.049 90.893 16.1486 90.9083 16.2713C90.939 16.3786 90.916 16.486 90.8393 16.5933C90.2566 17.268 89.697 17.7203 89.1603 17.9503C88.6236 18.1803 88.2096 18.257 87.9183 18.1803C87.8876 18.1803 87.857 18.188 87.8263 18.2033C87.7956 18.2033 87.7726 18.2186 87.7573 18.2493C87.5886 18.418 87.4046 18.579 87.2053 18.7323C86.914 18.9623 86.5996 19.1463 86.2623 19.2843C85.9403 19.4223 85.6183 19.4913 85.2963 19.4913C84.9896 19.4913 84.6983 19.4146 84.4223 19.2613C84.1463 19.0926 83.9163 18.809 83.7323 18.4103C83.5023 17.889 83.418 17.3523 83.4793 16.8003C83.5406 16.2483 83.7016 15.7193 83.9623 15.2133C84.223 14.7073 84.5526 14.2473 84.9513 13.8333C85.35 13.404 85.764 13.059 86.1933 12.7983C86.3466 12.7216 86.477 12.7216 86.5843 12.7983C86.6456 12.8443 86.707 12.8366 86.7683 12.7753C86.891 12.622 87.029 12.484 87.1823 12.3613C87.351 12.2386 87.5196 12.139 87.6883 12.0623H87.7113C88.0333 11.9396 88.2786 11.8783 88.4473 11.8783C88.938 11.8783 89.2983 12.0623 89.5283 12.4303C89.7583 12.7983 89.858 13.2813 89.8273 13.8793C89.7353 14.8606 89.421 15.819 88.8843 16.7543C88.8536 16.8156 88.8536 16.877 88.8843 16.9383C88.9303 16.9843 88.9916 16.992 89.0683 16.9613C89.283 16.8846 89.4823 16.762 89.6663 16.5933C89.8503 16.4093 90.019 16.233 90.1723 16.0643C90.1723 16.0643 90.18 16.0566 90.1953 16.0413C90.2106 16.0413 90.2183 16.026 90.2183 15.9953ZM85.6413 17.8583C86.0246 17.9043 86.3926 17.8353 86.7453 17.6513C86.822 17.6053 86.8296 17.521 86.7683 17.3983C86.4923 17.0303 86.293 16.6086 86.1703 16.1333C86.0936 15.9033 86.0476 15.6656 86.0323 15.4203C86.017 15.175 86.0246 14.9296 86.0553 14.6843C86.0553 14.6076 86.0246 14.554 85.9633 14.5233C85.902 14.4773 85.8483 14.4926 85.8023 14.5693C85.4343 14.9373 85.1583 15.3436 84.9743 15.7883C84.8976 15.9723 84.8363 16.1793 84.7903 16.4093C84.7443 16.624 84.7366 16.8386 84.7673 17.0533C84.8133 17.2526 84.8976 17.429 85.0203 17.5823C85.1583 17.7356 85.3653 17.8276 85.6413 17.8583ZM87.9873 16.3863C88.1253 16.233 88.2633 16.0183 88.4013 15.7423C88.5546 15.4663 88.685 15.175 88.7923 14.8683C88.8996 14.5616 88.9686 14.2626 88.9993 13.9713C89.0453 13.6646 89.03 13.4193 88.9533 13.2353C88.8766 13.0666 88.777 12.9823 88.6543 12.9823C88.547 12.967 88.4243 13.0053 88.2863 13.0973C88.1636 13.174 88.0486 13.289 87.9413 13.4423C87.834 13.5803 87.7496 13.7183 87.6883 13.8563C87.6116 14.071 87.558 14.301 87.5273 14.5463C87.512 14.7763 87.512 14.9986 87.5273 15.2133C87.5273 15.3973 87.535 15.589 87.5503 15.7883C87.581 15.9876 87.6346 16.1716 87.7113 16.3403C87.7266 16.3863 87.7573 16.4246 87.8033 16.4553C87.8493 16.486 87.9106 16.463 87.9873 16.3863Z" fill="#203757"/>
<path d="M99.1935 6.61131C99.3622 7.02531 99.3852 7.45464 99.2625 7.89931C99.1398 8.32864 98.9482 8.75031 98.6875 9.16431C98.4422 9.57831 98.1585 9.97698 97.8365 10.3603C97.5145 10.7283 97.2385 11.0503 97.0085 11.3263C96.2265 12.2616 95.3755 13.082 94.4555 13.7873C93.5508 14.4926 92.6385 15.2286 91.7185 15.9953C91.6418 16.118 91.5728 16.233 91.5115 16.3403C91.4655 16.4323 91.4119 16.532 91.3505 16.6393C91.2892 16.8233 91.2509 16.9996 91.2355 17.1683C91.2202 17.337 91.2508 17.4903 91.3275 17.6283C91.4042 17.7663 91.5039 17.866 91.6265 17.9273C91.7645 17.9733 91.9025 17.9963 92.0405 17.9963C92.1938 17.9963 92.3472 17.9733 92.5005 17.9273C92.6692 17.8813 92.8225 17.8276 92.9605 17.7663C92.9759 17.751 93.0142 17.728 93.0755 17.6973C93.2442 17.5746 93.3975 17.452 93.5355 17.3293C93.6888 17.2066 93.8498 17.084 94.0185 16.9613C94.1872 16.7926 94.3405 16.6316 94.4785 16.4783C94.6318 16.3096 94.7699 16.1256 94.8925 15.9263C94.9692 15.819 95.0535 15.773 95.1455 15.7883C95.2528 15.8036 95.3448 15.8496 95.4215 15.9263C95.4982 16.003 95.5442 16.1026 95.5595 16.2253C95.5749 16.3326 95.5442 16.44 95.4675 16.5473C95.3755 16.67 95.2682 16.8003 95.1455 16.9383C95.0228 17.0763 94.8925 17.222 94.7545 17.3753C94.5398 17.636 94.3022 17.8966 94.0415 18.1573C93.7962 18.4026 93.5355 18.625 93.2595 18.8243C92.9988 19.0236 92.7152 19.1846 92.4085 19.3073C92.1172 19.43 91.8182 19.4913 91.5115 19.4913C91.0362 19.4913 90.6605 19.407 90.3845 19.2383C90.1238 19.0696 89.9322 18.8703 89.8095 18.6403C89.6715 18.395 89.6025 18.1343 89.6025 17.8583C89.6025 17.567 89.6408 17.3063 89.7175 17.0763C89.7788 16.8463 89.8785 16.5933 90.0165 16.3173C90.1545 16.0413 90.3155 15.7576 90.4995 15.4663C90.6835 15.175 90.8675 14.8836 91.0515 14.5923C91.2508 14.301 91.4425 14.0326 91.6265 13.7873C91.7032 13.6953 91.8565 13.4806 92.0865 13.1433C92.3165 12.7906 92.5849 12.3843 92.8915 11.9243C93.2135 11.4643 93.5509 10.9736 93.9035 10.4523C94.2562 9.91564 94.5859 9.41731 94.8925 8.95731C95.1992 8.49731 95.4675 8.09864 95.6975 7.76131C95.9275 7.42398 96.0808 7.21698 96.1575 7.14031C96.2802 6.97164 96.4105 6.81064 96.5485 6.65731C96.6865 6.48864 96.8398 6.35064 97.0085 6.24331C97.4532 5.89064 97.8672 5.72198 98.2505 5.73731C98.6492 5.73731 98.9635 6.02864 99.1935 6.61131ZM93.8805 13.1663C94.1872 12.8903 94.5168 12.5913 94.8695 12.2693C95.2222 11.932 95.5748 11.5793 95.9275 11.2113C96.2802 10.8433 96.6099 10.4676 96.9165 10.0843C97.2385 9.70098 97.5222 9.32531 97.7675 8.95731C97.8442 8.83464 97.9132 8.71198 97.9745 8.58931C98.0512 8.45131 98.1278 8.32098 98.2045 8.19831C98.2352 8.09098 98.2582 7.99898 98.2735 7.92231C98.2888 7.83031 98.2965 7.74598 98.2965 7.66931C98.2658 7.56198 98.2198 7.45464 98.1585 7.34731C98.0972 7.23998 98.0052 7.20164 97.8825 7.23231C97.8058 7.24764 97.7368 7.29364 97.6755 7.37031C97.6142 7.43164 97.5528 7.49298 97.4915 7.55431C97.3228 7.72298 97.0775 8.02198 96.7555 8.45131C96.4335 8.86531 96.0809 9.33298 95.6975 9.85431C95.3142 10.3756 94.9308 10.9046 94.5475 11.4413C94.1795 11.9626 93.8575 12.415 93.5815 12.7983C93.5048 12.921 93.4895 13.0053 93.5355 13.0513C93.5968 13.0973 93.6428 13.1356 93.6735 13.1663C93.7195 13.197 93.7885 13.197 93.8805 13.1663Z" fill="#203757"/>
<path d="M96.6215 16.0413C96.5448 16.164 96.4451 16.3173 96.3225 16.5013C96.2151 16.6853 96.1308 16.8616 96.0695 17.0303C96.0081 17.1683 96.0081 17.314 96.0695 17.4673C96.1308 17.6053 96.2151 17.7126 96.3225 17.7893C96.5218 17.9273 96.7135 17.9963 96.8975 17.9963C97.0968 17.981 97.2731 17.9426 97.4265 17.8813C97.5951 17.82 97.7408 17.7433 97.8635 17.6513C98.0015 17.544 98.1165 17.4673 98.2085 17.4213C98.3158 17.3446 98.4155 17.268 98.5075 17.1913C98.6148 17.0993 98.7221 17.0073 98.8295 16.9153C98.9828 16.7466 99.1285 16.578 99.2665 16.4093C99.4198 16.2406 99.5731 16.072 99.7265 15.9033C99.8031 15.796 99.8951 15.75 100.002 15.7653C100.11 15.7653 100.194 15.8036 100.255 15.8803C100.332 15.957 100.378 16.0566 100.393 16.1793C100.424 16.2866 100.401 16.394 100.324 16.5013C100.232 16.624 100.117 16.7543 99.9795 16.8923C99.8568 17.0303 99.7188 17.1836 99.5655 17.3523C99.3968 17.5516 99.2128 17.7433 99.0135 17.9273C98.8295 18.1113 98.6378 18.2876 98.4385 18.4563C98.1778 18.6403 97.9401 18.7783 97.7255 18.8703C97.5108 18.9623 97.3115 19.0313 97.1275 19.0773C96.9588 19.108 96.8055 19.1233 96.6675 19.1233C96.5448 19.1233 96.4451 19.1233 96.3685 19.1233C96.1998 19.1233 96.0925 19.1846 96.0465 19.3073C96.0158 19.4146 95.9851 19.5296 95.9545 19.6523C95.9698 20.143 95.9315 20.6336 95.8395 21.1243C95.7475 21.6303 95.6631 22.0903 95.5865 22.5043C95.5098 22.857 95.4101 23.1943 95.2875 23.5163C95.1801 23.8383 95.0575 24.1603 94.9195 24.4823C94.8121 24.8043 94.6665 25.1263 94.4825 25.4483C94.2985 25.7703 94.0915 26.0616 93.8615 26.3223C93.6161 26.583 93.3401 26.813 93.0335 27.0123C92.7268 27.2116 92.4048 27.342 92.0675 27.4033C91.5001 27.526 91.0095 27.4953 90.5955 27.3113C90.1815 27.1273 89.8901 26.813 89.7215 26.3683C89.5988 26.0923 89.5375 25.778 89.5375 25.4253C89.5375 25.1033 89.6065 24.7736 89.7445 24.4363C89.8671 24.1143 90.0281 23.7923 90.2275 23.4703C90.4115 23.1483 90.6108 22.8263 90.8255 22.5043C91.0401 22.1976 91.2318 21.9063 91.4005 21.6303C91.8758 20.879 92.3511 20.1353 92.8265 19.3993C93.2865 18.6633 93.7388 17.9043 94.1835 17.1223C95.0881 15.6656 96.0235 14.232 96.9895 12.8213C97.9555 11.3953 98.9598 9.99998 100.002 8.63531C100.033 8.60464 100.064 8.56631 100.094 8.52031C100.14 8.47431 100.179 8.43598 100.209 8.40531C100.332 8.28264 100.462 8.18298 100.6 8.10631C100.738 8.02964 100.869 7.99131 100.991 7.99131C101.129 7.99131 101.252 8.04498 101.359 8.15231C101.467 8.25964 101.551 8.42831 101.612 8.65831C101.674 8.96498 101.605 9.24098 101.405 9.48631C101.206 9.73164 101.014 9.95398 100.83 10.1533C100.386 10.6593 99.9565 11.1806 99.5425 11.7173C99.1438 12.2386 98.7605 12.783 98.3925 13.3503C97.7945 14.2703 97.2041 15.1673 96.6215 16.0413ZM91.3085 23.9763C91.1091 24.375 90.9711 24.7276 90.8945 25.0343C90.8178 25.3563 90.7948 25.6246 90.8255 25.8393C90.8408 26.054 90.8945 26.215 90.9865 26.3223C91.0785 26.445 91.1935 26.5063 91.3315 26.5063C91.6075 26.5063 91.8451 26.4373 92.0445 26.2993C92.2285 26.1766 92.3895 26.031 92.5275 25.8623C92.6501 25.6936 92.7575 25.5173 92.8495 25.3333C92.9261 25.1646 92.9875 25.0343 93.0335 24.9423C93.1715 24.651 93.3095 24.329 93.4475 23.9763C93.5701 23.6236 93.6851 23.294 93.7925 22.9873C93.8845 22.6806 93.9688 22.42 94.0455 22.2053C94.1068 22.006 94.1375 21.9063 94.1375 21.9063C94.1528 21.845 94.1835 21.7453 94.2295 21.6073C94.2601 21.4693 94.2908 21.3313 94.3215 21.1933C94.3368 21.0553 94.3368 20.925 94.3215 20.8023C94.3061 20.695 94.2525 20.626 94.1605 20.5953C94.0225 20.5493 93.8768 20.5876 93.7235 20.7103C93.6161 20.833 93.4551 21.0246 93.2405 21.2853C93.0258 21.5613 92.7958 21.8603 92.5505 22.1823C92.3051 22.5043 92.0675 22.8263 91.8375 23.1483C91.6075 23.4703 91.4311 23.7463 91.3085 23.9763Z" fill="#203757"/>
<path d="M121.765 2.58631C121.811 3.04631 121.772 3.52164 121.65 4.01231C121.527 4.50298 121.358 4.97831 121.144 5.43831C120.929 5.89831 120.684 6.34298 120.408 6.77231C120.147 7.20164 119.879 7.59264 119.603 7.94531C119.051 8.69664 118.399 9.40198 117.648 10.0613C116.896 10.7053 116.084 11.2113 115.21 11.5793C114.918 11.702 114.596 11.8093 114.244 11.9013C113.906 11.9933 113.561 12.047 113.209 12.0623C112.871 12.0623 112.549 12.001 112.243 11.8783C111.936 11.7556 111.683 11.541 111.484 11.2343C111.177 10.7743 111.077 10.299 111.185 9.80831C111.292 9.31764 111.499 8.87298 111.806 8.47431C111.913 8.29031 112.028 8.12164 112.151 7.96831C112.289 7.81498 112.457 7.69998 112.657 7.62331C112.871 7.53131 113.101 7.52364 113.347 7.60031C113.592 7.66164 113.745 7.82264 113.807 8.08331C113.853 8.28264 113.822 8.46664 113.715 8.63531C113.623 8.78864 113.5 8.94198 113.347 9.09531C113.209 9.24864 113.063 9.40198 112.91 9.55531C112.772 9.70864 112.68 9.87731 112.634 10.0613C112.557 10.3373 112.572 10.5366 112.68 10.6593C112.787 10.782 112.94 10.8586 113.14 10.8893C113.354 10.92 113.584 10.9123 113.83 10.8663C114.09 10.8203 114.328 10.759 114.543 10.6823C114.742 10.6056 114.934 10.5136 115.118 10.4063C115.302 10.299 115.455 10.207 115.578 10.1303C116.13 9.80831 116.651 9.42498 117.142 8.98031C117.556 8.55098 117.931 8.09864 118.269 7.62331C118.621 7.14798 118.943 6.64964 119.235 6.12831C119.449 5.72964 119.649 5.30798 119.833 4.86331C120.017 4.40331 120.124 3.94331 120.155 3.48331C120.17 2.99264 120.078 2.59398 119.879 2.28731C119.679 1.98064 119.419 1.75831 119.097 1.62031C118.775 1.48231 118.414 1.42098 118.016 1.43631C117.617 1.43631 117.226 1.49764 116.843 1.62031C116.659 1.68164 116.467 1.75064 116.268 1.82731C116.084 1.88864 115.892 1.96531 115.693 2.05731C115.003 2.42531 114.351 2.85464 113.738 3.34531C113.14 3.82064 112.618 4.27298 112.174 4.70231C111.346 5.45364 110.564 6.25864 109.828 7.11731C109.107 7.96064 108.425 8.84231 107.781 9.76231C107.474 10.207 107.175 10.6976 106.884 11.2343C106.592 11.771 106.362 12.3306 106.194 12.9133C106.04 13.496 105.971 14.0786 105.987 14.6613C106.017 15.244 106.194 15.796 106.516 16.3173C106.899 16.9153 107.351 17.36 107.873 17.6513C108.409 17.9273 108.961 18.0806 109.529 18.1113C110.111 18.142 110.694 18.073 111.277 17.9043C111.859 17.7203 112.404 17.475 112.91 17.1683C113.14 17.0303 113.37 16.8616 113.6 16.6623C113.845 16.4476 114.121 16.21 114.428 15.9493C114.52 15.8573 114.619 15.819 114.727 15.8343C114.834 15.8496 114.918 15.8956 114.98 15.9723C115.056 16.0336 115.102 16.118 115.118 16.2253C115.133 16.3326 115.095 16.44 115.003 16.5473C114.972 16.5933 114.934 16.647 114.888 16.7083C114.857 16.7696 114.811 16.8233 114.75 16.8693C114.596 16.992 114.428 17.13 114.244 17.2833C114.06 17.4366 113.845 17.59 113.6 17.7433C113.155 18.004 112.772 18.2263 112.45 18.4103C112.143 18.579 111.852 18.7246 111.576 18.8473C111.3 18.97 111.031 19.0696 110.771 19.1463C110.51 19.223 110.219 19.292 109.897 19.3533C108.287 19.66 107.014 19.453 106.079 18.7323C105.665 18.4103 105.32 18.0193 105.044 17.5593C104.768 17.0993 104.561 16.6163 104.423 16.1103C104.3 15.589 104.231 15.0676 104.216 14.5463C104.216 14.0096 104.277 13.5113 104.4 13.0513C104.722 11.7326 105.212 10.5366 105.872 9.46331C106.531 8.38998 107.229 7.41631 107.965 6.54231C108.67 5.71431 109.375 4.97064 110.081 4.31131C110.801 3.65198 111.583 3.00031 112.427 2.35631C112.749 2.11098 113.193 1.84264 113.761 1.55131C114.328 1.24464 114.949 0.968644 115.624 0.72331C116.298 0.462643 116.981 0.270977 117.671 0.148311C118.376 0.0103107 119.02 -0.0126895 119.603 0.0793102C120.185 0.17131 120.676 0.416643 121.075 0.81531C121.473 1.19864 121.703 1.78898 121.765 2.58631Z" fill="#203757"/>
<path d="M120.9 15.9953C120.992 15.888 121.084 15.842 121.176 15.8573C121.283 15.8573 121.375 15.8956 121.452 15.9723C121.529 16.049 121.575 16.1486 121.59 16.2713C121.621 16.3786 121.598 16.486 121.521 16.5933C120.938 17.268 120.379 17.7203 119.842 17.9503C119.305 18.1803 118.891 18.257 118.6 18.1803C118.569 18.1803 118.539 18.188 118.508 18.2033C118.477 18.2033 118.454 18.2186 118.439 18.2493C118.27 18.418 118.086 18.579 117.887 18.7323C117.596 18.9623 117.281 19.1463 116.944 19.2843C116.622 19.4223 116.3 19.4913 115.978 19.4913C115.671 19.4913 115.38 19.4146 115.104 19.2613C114.828 19.0926 114.598 18.809 114.414 18.4103C114.184 17.889 114.1 17.3523 114.161 16.8003C114.222 16.2483 114.383 15.7193 114.644 15.2133C114.905 14.7073 115.234 14.2473 115.633 13.8333C116.032 13.404 116.446 13.059 116.875 12.7983C117.028 12.7216 117.159 12.7216 117.266 12.7983C117.327 12.8443 117.389 12.8366 117.45 12.7753C117.573 12.622 117.711 12.484 117.864 12.3613C118.033 12.2386 118.201 12.139 118.37 12.0623H118.393C118.715 11.9396 118.96 11.8783 119.129 11.8783C119.62 11.8783 119.98 12.0623 120.21 12.4303C120.44 12.7983 120.54 13.2813 120.509 13.8793C120.417 14.8606 120.103 15.819 119.566 16.7543C119.535 16.8156 119.535 16.877 119.566 16.9383C119.612 16.9843 119.673 16.992 119.75 16.9613C119.965 16.8846 120.164 16.762 120.348 16.5933C120.532 16.4093 120.701 16.233 120.854 16.0643C120.854 16.0643 120.862 16.0566 120.877 16.0413C120.892 16.0413 120.9 16.026 120.9 15.9953ZM116.323 17.8583C116.706 17.9043 117.074 17.8353 117.427 17.6513C117.504 17.6053 117.511 17.521 117.45 17.3983C117.174 17.0303 116.975 16.6086 116.852 16.1333C116.775 15.9033 116.729 15.6656 116.714 15.4203C116.699 15.175 116.706 14.9296 116.737 14.6843C116.737 14.6076 116.706 14.554 116.645 14.5233C116.584 14.4773 116.53 14.4926 116.484 14.5693C116.116 14.9373 115.84 15.3436 115.656 15.7883C115.579 15.9723 115.518 16.1793 115.472 16.4093C115.426 16.624 115.418 16.8386 115.449 17.0533C115.495 17.2526 115.579 17.429 115.702 17.5823C115.84 17.7356 116.047 17.8276 116.323 17.8583ZM118.669 16.3863C118.807 16.233 118.945 16.0183 119.083 15.7423C119.236 15.4663 119.367 15.175 119.474 14.8683C119.581 14.5616 119.65 14.2626 119.681 13.9713C119.727 13.6646 119.712 13.4193 119.635 13.2353C119.558 13.0666 119.459 12.9823 119.336 12.9823C119.229 12.967 119.106 13.0053 118.968 13.0973C118.845 13.174 118.73 13.289 118.623 13.4423C118.516 13.5803 118.431 13.7183 118.37 13.8563C118.293 14.071 118.24 14.301 118.209 14.5463C118.194 14.7763 118.194 14.9986 118.209 15.2133C118.209 15.3973 118.217 15.589 118.232 15.7883C118.263 15.9876 118.316 16.1716 118.393 16.3403C118.408 16.3863 118.439 16.4246 118.485 16.4553C118.531 16.486 118.592 16.463 118.669 16.3863Z" fill="#203757"/>
<path d="M120.974 18.9393C120.897 18.786 120.859 18.6403 120.859 18.5023C120.859 18.349 120.867 18.2416 120.882 18.1803C120.897 18.073 120.928 17.981 120.974 17.9043C121.02 17.8276 121.081 17.751 121.158 17.6743C121.281 17.5516 121.434 17.4673 121.618 17.4213C121.695 17.3906 121.779 17.3753 121.871 17.3753C121.978 17.3753 122.078 17.3906 122.17 17.4213C122.354 17.4826 122.515 17.59 122.653 17.7433C122.791 17.8813 122.875 18.0423 122.906 18.2263C122.952 18.441 122.937 18.6556 122.86 18.8703C122.783 19.085 122.638 19.246 122.423 19.3533C122.224 19.476 122.017 19.522 121.802 19.4913C121.587 19.4606 121.396 19.3686 121.227 19.2153C121.212 19.2153 121.204 19.2076 121.204 19.1923C121.112 19.1156 121.035 19.0313 120.974 18.9393Z" fill="#203757"/>
</svg>
