<svg width="100" height="100" viewBox="0 0 100 100" fill="none" xmlns="http://www.w3.org/2000/svg">
<path d="M46.8571 25.5264C47.317 25.3425 47.8688 25.2045 48.5125 25.1126C49.1563 25.0206 49.7694 25.0206 50.3519 25.1126C50.9343 25.2045 51.4095 25.4345 51.7774 25.8023C52.1453 26.1395 52.2985 26.6914 52.2372 27.4578C52.1759 28.2548 51.9 29.0519 51.4095 29.8489C50.919 30.646 50.4898 31.3817 50.122 32.0561C49.5088 33.1291 48.8497 34.1714 48.1447 35.183C47.4702 36.1947 46.7498 37.2063 45.9834 38.2179C44.6959 39.9653 43.3777 41.6821 42.0288 43.3681C40.7106 45.0542 39.4078 46.7709 38.1202 48.5183C37.5071 49.3767 36.894 50.2504 36.2809 51.1394C35.6678 52.0284 35.0853 52.9327 34.5335 53.8524C34.3802 54.0977 34.2116 54.3736 34.0277 54.6801C33.8437 54.956 33.6598 55.2472 33.4759 55.5538C33.2613 55.9523 33.062 56.3815 32.8781 56.8414C32.6941 57.3012 32.5562 57.7457 32.4642 58.1749C32.3722 58.6041 32.3569 59.0026 32.4182 59.3705C32.5102 59.7077 32.7248 59.9529 33.062 60.1062C33.4605 60.2595 33.8897 60.3361 34.3495 60.3361C34.8094 60.3055 35.2539 60.2135 35.6831 60.0602C36.1429 59.9069 36.5721 59.723 36.9706 59.5084C37.3691 59.2632 37.7217 59.0026 38.0283 58.7267C38.6107 58.1749 39.1932 57.5158 39.7756 56.7494C39.9289 56.5348 40.1128 56.4428 40.3274 56.4735C40.542 56.5041 40.7106 56.5961 40.8333 56.7494C40.9865 56.9027 41.0785 57.1019 41.1092 57.3472C41.1705 57.5618 41.1092 57.761 40.9252 57.945C40.8333 58.0676 40.68 58.2668 40.4654 58.5427C40.2814 58.788 40.0669 59.0486 39.8216 59.3245C39.607 59.5697 39.4078 59.7996 39.2238 60.0142C39.0705 60.1982 38.9786 60.3055 38.9479 60.3361C38.4574 60.8573 37.8596 61.4091 37.1546 61.9915C36.4801 62.5433 35.7444 63.0032 34.9473 63.371C34.1809 63.7389 33.3839 63.9382 32.5562 63.9688C31.7591 63.9995 31.0081 63.7389 30.303 63.1871C29.5059 62.574 29.0001 61.8076 28.7855 60.8879C28.6016 59.9682 28.6476 59.0332 28.9235 58.0829C29.0461 57.6231 29.3067 57.01 29.7052 56.2436C30.1037 55.4465 30.5942 54.5728 31.1767 53.6225C31.7591 52.6722 32.4182 51.6605 33.154 50.5876C33.8897 49.5146 34.6561 48.457 35.4532 47.4147C35.7597 47.0162 35.7597 46.7096 35.4532 46.495C35.1466 46.2498 34.7941 46.1118 34.3955 46.0812C34.089 46.0505 33.7824 46.0505 33.4759 46.0812C33.1693 46.1118 32.8934 46.1425 32.6482 46.1731C31.0847 46.3264 29.7205 46.7096 28.5556 47.3227C27.3907 47.9052 26.2411 48.6562 25.1068 49.5759C24.2178 50.4649 23.3288 51.3693 22.4398 52.289C21.5507 53.178 20.6617 54.067 19.7727 54.956C19.0983 55.6304 18.4085 56.3049 17.7034 56.9793C17.029 57.6537 16.3393 58.2975 15.6342 58.9106C15.6342 58.9106 15.4502 59.0792 15.0824 59.4164C14.7145 59.7537 14.2393 60.1522 13.6569 60.612C13.0744 61.0719 12.4306 61.547 11.7256 62.0375C11.0205 62.528 10.3307 62.9265 9.65629 63.2331C8.95121 63.5703 8.27678 63.7696 7.63301 63.8309C7.01989 63.8922 6.28415 63.9075 5.42579 63.8769C5.2112 63.8769 4.90464 63.8309 4.50611 63.7389C4.13824 63.6469 3.77037 63.4937 3.4025 63.2791C3.03463 63.0645 2.71275 62.8039 2.43685 62.4973C2.16094 62.1908 2.02299 61.8229 2.02299 61.3937C1.99234 61.3018 1.99234 61.1791 2.02299 61.0259C2.02299 60.8419 2.05365 60.7193 2.11496 60.658C2.26824 60.3208 2.49816 60.0296 2.80472 59.7843C3.14193 59.5084 3.57111 59.3858 4.09226 59.4164C4.5521 59.4164 4.93529 59.5391 5.24185 59.7843C5.54841 59.9989 5.83964 60.2288 6.11554 60.4741C6.39145 60.7193 6.698 60.9186 7.03522 61.0719C7.40309 61.1945 7.86293 61.1638 8.41473 60.9799C9.02785 60.7653 9.7176 60.3974 10.484 59.8763C11.281 59.3551 12.0321 58.8186 12.7372 58.2668C13.4729 57.6844 14.1167 57.1632 14.6685 56.7034C15.2203 56.2129 15.5575 55.9217 15.6802 55.8297C15.8028 55.7071 15.9101 55.5998 16.002 55.5078C16.1247 55.3852 16.2473 55.2779 16.3699 55.1859C16.5232 55.0327 16.6611 54.9254 16.7838 54.8641C17.7954 53.8831 18.7917 52.9021 19.7727 51.9211C20.7537 50.9095 21.7347 49.8825 22.7157 48.8402C22.8689 48.6256 22.9762 48.4417 23.0376 48.2884C23.0989 48.1044 23.0835 47.9818 22.9916 47.9205C22.9303 47.8592 22.8076 47.8439 22.6237 47.8745C22.4704 47.8745 22.2865 47.8899 22.0719 47.9205C21.888 47.9512 21.704 47.9971 21.5201 48.0585C21.3668 48.1198 21.2442 48.1658 21.1522 48.1964C21.0909 48.1964 21.0449 48.2117 21.0143 48.2424C20.9836 48.2424 20.9376 48.2424 20.8763 48.2424C20.3552 48.4263 19.8647 48.6409 19.4048 48.8862C18.9757 49.1008 18.5311 49.3307 18.0713 49.5759C17.7341 49.7292 17.4429 49.8978 17.1976 50.0817C16.9524 50.2657 16.6152 50.373 16.186 50.4036C15.297 50.4036 14.7298 49.9438 14.4846 49.0241C14.4539 48.8402 14.4846 48.7022 14.5765 48.6103C14.6992 48.2117 15.0824 47.8439 15.7261 47.5067C16.4006 47.1388 17.1057 46.8169 17.8414 46.541C18.6078 46.2651 19.3129 46.0505 19.9566 45.8972C20.6311 45.7133 21.0449 45.606 21.1982 45.5753C21.4741 45.4834 21.75 45.4221 22.0259 45.3914C22.3325 45.3301 22.6084 45.2688 22.8536 45.2075C23.4667 44.9622 24.0645 44.7936 24.647 44.7016C25.2601 44.579 25.8732 44.3338 26.4863 43.9659C27.0995 43.6287 27.6513 43.2302 28.1417 42.7703C28.6629 42.2798 29.184 41.7893 29.7052 41.2989C30.9314 39.95 32.1423 38.6318 33.3379 37.3442C34.5641 36.0567 35.821 34.7692 37.1086 33.4816C37.8137 32.8072 38.5341 32.0868 39.2698 31.3204C40.0362 30.5233 40.8179 29.7569 41.615 29.0212C42.412 28.2855 43.2397 27.611 44.0981 26.9979C44.9871 26.3848 45.9068 25.8943 46.8571 25.5264ZM46.1214 33.2977C46.244 33.0831 46.3973 32.7919 46.5812 32.424C46.7958 32.0561 46.9338 31.6883 46.9951 31.3204C47.087 30.9525 47.0717 30.6153 46.9491 30.3087C46.8265 30.0022 46.5199 29.7876 46.0294 29.665C45.7535 29.6343 45.4623 29.6496 45.1557 29.711C44.8492 29.7416 44.5733 29.8336 44.328 29.9869C43.8988 30.2321 43.5003 30.4927 43.1324 30.7686C42.7646 31.0445 42.3967 31.351 42.0288 31.6883C41.6916 32.0255 41.3544 32.378 41.0172 32.7459C40.68 33.0831 40.3428 33.4203 40.0055 33.7575L38.9939 34.7692C38.8406 34.9838 38.6567 35.1983 38.4421 35.4129C38.2582 35.5969 38.0896 35.7808 37.9363 35.9647C37.0166 37.007 36.0816 38.034 35.1313 39.0456C34.1809 40.0266 33.2459 41.0383 32.3263 42.0806C31.9277 42.5098 31.7132 42.9236 31.6825 43.3221C31.6518 43.69 32.0657 43.9199 32.9241 44.0119C33.3532 44.0732 33.7977 44.1039 34.2576 44.1039C34.7174 44.0732 35.1619 44.0272 35.5911 43.9659C35.9283 43.9353 36.2196 43.9046 36.4648 43.8739C36.7407 43.8433 37.0013 43.7973 37.2465 43.736C37.7677 43.4907 38.2428 43.1842 38.672 42.8163C39.1012 42.4178 39.5304 42.0039 39.9596 41.5748C40.3887 41.023 40.8179 40.4558 41.2471 39.8734C41.7069 39.2909 42.1668 38.6931 42.6266 38.08C43.0558 37.5282 43.485 36.9764 43.9142 36.4246C44.374 35.8728 44.8185 35.3056 45.2477 34.7232C45.401 34.4779 45.5389 34.248 45.6615 34.0334C45.8148 33.7882 45.9681 33.5429 46.1214 33.2977Z" fill="#203757"/>
<path d="M75.3494 25.1586C76.7596 25.3732 77.8785 25.9556 78.7062 26.9059C79.5339 27.8563 79.8712 29.0519 79.7179 30.4927C79.6259 31.2591 79.4113 31.9948 79.0741 32.6999C78.7676 33.3743 78.3997 34.0181 77.9705 34.6312C77.7253 35.091 77.4494 35.5202 77.1428 35.9188C76.8669 36.3173 76.5297 36.7311 76.1312 37.1603C75.8859 37.4056 75.5947 37.6815 75.2575 37.988C74.9509 38.2946 74.6137 38.5705 74.2458 38.8157C73.8779 39.061 73.4794 39.2602 73.0502 39.4135C72.6517 39.5361 72.2532 39.5361 71.8547 39.4135C71.4255 39.3216 71.1343 39.1529 70.981 38.9077C70.8277 38.6625 70.7664 38.4019 70.797 38.126C70.8277 37.8501 70.9197 37.5742 71.0729 37.2983C71.2262 36.9917 71.4255 36.7311 71.6707 36.5165C72.3145 36.0261 73.0196 35.5509 73.786 35.091C74.583 34.6006 75.2421 34.0334 75.7633 33.3897C76.0698 32.8685 76.2844 32.3167 76.4071 31.7342C76.5603 31.1518 76.5757 30.6153 76.453 30.1248C76.3304 29.6037 76.0545 29.1745 75.6253 28.8373C75.1961 28.5 74.5677 28.3008 73.74 28.2395C73.1269 28.2088 72.4831 28.2701 71.8087 28.4234C71.1342 28.5767 70.4598 28.7913 69.7854 29.0672C69.1416 29.3124 68.4978 29.5883 67.8541 29.8949C67.241 30.2014 66.6738 30.4927 66.1527 30.7686C61.7996 33.0065 58.0595 36.0414 54.9327 39.8734C54.1049 40.8543 53.3232 41.8813 52.5875 42.9543C51.8517 44.0272 51.2233 45.1462 50.7022 46.3111C50.4876 46.7709 50.3036 47.3227 50.1503 47.9665C49.9971 48.5796 49.9511 49.1774 50.0124 49.7599C50.0737 50.3423 50.273 50.8481 50.6102 51.2773C50.9474 51.7065 51.5145 51.9517 52.3116 52.0131C52.6488 52.0131 53.0013 51.9671 53.3692 51.8751C53.7677 51.7831 54.1663 51.6758 54.5648 51.5532H54.6108C55.3159 51.3386 56.0209 51.0627 56.726 50.7255C57.4311 50.3576 58.1209 49.9744 58.7953 49.5759C59.5004 49.1774 60.1595 48.7789 60.7726 48.3803C61.3857 47.9818 61.9528 47.6139 62.474 47.2767C62.8419 47.0621 63.2097 46.8169 63.5776 46.541C63.9761 46.2651 64.39 45.9585 64.8192 45.6213C65.279 45.1615 65.7848 44.763 66.3366 44.4257C66.8884 44.0885 67.5015 43.8739 68.176 43.782C68.6665 43.69 69.2489 43.6747 69.9234 43.736C70.6284 43.7666 71.1343 43.9966 71.4408 44.4257C71.6247 44.671 71.6861 44.9316 71.6247 45.2075C71.5634 45.4834 71.4408 45.7593 71.2569 46.0352C71.0729 46.3111 70.8583 46.587 70.6131 46.8629C70.3679 47.1081 70.1839 47.3227 70.0613 47.5067C69.4482 48.3037 68.8197 49.1161 68.176 49.9438C67.5322 50.7715 66.8884 51.5992 66.2447 52.4269C66.2447 52.4269 66.2293 52.4422 66.1987 52.4729C65.0337 54.0977 63.8382 55.7071 62.6119 57.3012C61.6923 58.4661 60.7726 59.6464 59.8529 60.8419C58.9332 62.0069 57.9676 63.1564 56.9559 64.2907C55.975 65.425 54.948 66.5133 53.875 67.5556C52.8021 68.5979 51.6678 69.5635 50.4722 70.4525C49.4912 71.2189 48.4336 71.8934 47.2994 72.4758C46.1651 73.0583 44.9848 73.5028 43.7586 73.8093C42.5324 74.1159 41.2908 74.2539 40.0339 74.2232C38.777 74.2232 37.5508 74.0086 36.3552 73.5794C34.7918 72.997 33.4583 72.0926 32.3546 70.8664C31.2204 69.6402 30.4846 68.2453 30.1474 66.6819C30.0555 66.222 29.9788 65.7469 29.9175 65.2564C29.8562 64.7659 29.8869 64.2754 30.0095 63.7849C30.0095 63.6929 30.0401 63.5856 30.1014 63.463C30.1014 63.4324 30.1168 63.417 30.1474 63.417V63.371C30.2394 63.1564 30.3467 62.9572 30.4693 62.7732C30.5919 62.5893 30.7759 62.3901 31.0211 62.1755C31.2051 62.0528 31.4196 61.9302 31.6649 61.8076C31.9101 61.6543 32.1707 61.547 32.4466 61.4857C32.7225 61.3937 32.9984 61.3631 33.2743 61.3937C33.5502 61.3937 33.7801 61.501 33.9641 61.7156C34.148 61.9302 34.24 62.1755 34.24 62.4514C34.24 62.6966 34.2093 62.9419 34.148 63.1871C33.9947 63.8922 33.8568 64.5513 33.7342 65.1644C33.5809 65.8082 33.5809 66.4826 33.7342 67.1877C33.9181 67.9541 34.2246 68.5979 34.6538 69.119C35.0524 69.6708 35.5428 70.1153 36.1253 70.4525C36.7078 70.7897 37.3515 71.035 38.0566 71.1883C38.7311 71.3416 39.4208 71.4335 40.1259 71.4642C41.4441 71.4642 42.701 71.2343 43.8966 70.7744C45.1228 70.3452 46.2877 69.7628 47.3913 69.027C48.4949 68.2913 49.5372 67.4329 50.5182 66.4519C51.5299 65.471 52.4802 64.444 53.3692 63.371C54.3502 62.2061 55.3005 61.0259 56.2202 59.8303C57.1705 58.6347 58.1055 57.4238 59.0252 56.1976C59.1785 55.983 59.3011 55.7684 59.3931 55.5538C59.5157 55.3392 59.6537 55.1093 59.8069 54.8641C59.8989 54.7108 60.0215 54.4655 60.1748 54.1283C60.3587 53.7911 60.4814 53.4692 60.5427 53.1627C60.604 52.8561 60.5733 52.6108 60.4507 52.4269C60.3281 52.243 60.0215 52.2123 59.531 52.3349C59.5004 52.3349 59.3931 52.3656 59.2091 52.4269C58.9332 52.5802 58.642 52.7181 58.3354 52.8408C58.0289 52.9634 57.7223 53.1013 57.4158 53.2546C56.7413 53.5305 56.0056 53.7911 55.2086 54.0363C54.4422 54.2509 53.6604 54.4042 52.8634 54.4962C52.097 54.5575 51.3306 54.5268 50.5642 54.4042C49.8285 54.2509 49.1387 53.9444 48.4949 53.4845C47.4526 52.7488 46.7935 51.8751 46.5176 50.8635C46.2724 49.8518 46.2877 48.7789 46.5636 47.6446C46.8395 46.5103 47.3147 45.3607 47.9891 44.1958C48.6635 43.0309 49.3993 41.912 50.1963 40.839C51.024 39.7661 51.8364 38.7851 52.6335 37.8961C53.4305 37.007 54.1049 36.2713 54.6568 35.6888C55.8523 34.3706 57.2472 33.0218 58.8413 31.6423C60.4354 30.2628 62.1368 29.0519 63.9455 28.0096C65.7542 26.9366 67.6242 26.1242 69.5555 25.5724C71.5174 24.99 73.4488 24.852 75.3494 25.1586Z" fill="#203757"/>
<path d="M81.1351 56.7494C81.319 56.5348 81.5183 56.4428 81.7329 56.4735C81.9475 56.5041 82.1314 56.5961 82.2847 56.7494C82.438 56.872 82.53 57.0559 82.5606 57.3012C82.6219 57.5158 82.5759 57.7304 82.4227 57.945C82.2387 58.1902 82.0088 58.4508 81.7329 58.7267C81.457 59.0026 81.1658 59.3091 80.8592 59.6464C80.7059 59.7996 80.3994 60.0909 79.9395 60.52C79.5104 60.9492 79.0045 61.3784 78.4221 61.8076C77.6863 62.3594 76.828 62.8499 75.847 63.2791C74.8967 63.7083 73.6858 63.9382 72.2143 63.9688C71.1413 63.9995 70.145 63.9228 69.2253 63.7389C68.3057 63.5243 67.5699 63.1105 67.0181 62.4973C66.4663 61.8536 66.0984 61.1945 65.9145 60.52C65.7306 59.8456 65.6846 59.1712 65.7765 58.4968C65.8685 57.8223 66.0678 57.1786 66.3743 56.5654C66.7116 55.9217 67.1101 55.3239 67.5699 54.7721C68.367 53.7604 69.2713 52.8867 70.283 52.151C71.2946 51.4153 72.5055 50.8328 73.9157 50.4036C74.3142 50.3117 74.8353 50.235 75.4791 50.1737C76.1229 50.1124 76.69 50.1277 77.1805 50.2197C78.3761 50.4343 79.1425 50.9861 79.4797 51.8751C79.6636 52.3349 79.7249 52.8254 79.6636 53.3466C79.633 53.8371 79.495 54.2663 79.2498 54.6341C78.4527 55.891 77.3338 56.6727 75.893 56.9793C75.6477 57.0406 75.4485 57.0253 75.2952 56.9333C75.1419 56.8107 75.0193 56.6727 74.9273 56.5195C74.866 56.3355 74.8353 56.1516 74.8353 55.9677C74.866 55.7837 74.958 55.6304 75.1112 55.5078C75.1419 55.4465 75.1726 55.4159 75.2032 55.4159C75.2339 55.3852 75.2645 55.3545 75.2952 55.3239C75.7857 54.9867 76.1076 54.6648 76.2608 54.3582C76.4448 54.0517 76.5061 53.7911 76.4448 53.5765C76.4141 53.3313 76.2915 53.132 76.0769 52.9787C75.893 52.8254 75.6937 52.7181 75.4791 52.6568C75.0806 52.5649 74.6207 52.6108 74.0996 52.7948C73.5784 52.9787 73.0573 53.2393 72.5362 53.5765C72.015 53.8831 71.5245 54.2509 71.0647 54.6801C70.6048 55.0786 70.237 55.4465 69.9611 55.7837C69.8384 55.9063 69.6852 56.0903 69.5012 56.3355C69.3479 56.5808 69.21 56.872 69.0874 57.2092C68.9954 57.5158 68.9341 57.8683 68.9034 58.2668C68.9034 58.6654 69.0107 59.0792 69.2253 59.5084C69.6239 60.2135 70.2063 60.704 70.9727 60.9799C71.7698 61.2251 72.6128 61.3171 73.5018 61.2558C74.4215 61.1945 75.3258 60.9952 76.2149 60.658C77.1345 60.2901 77.9163 59.8456 78.56 59.3245L79.2498 58.7727C79.9242 58.1596 80.5526 57.4851 81.1351 56.7494Z" fill="#203757"/>
<path d="M93.9373 56.9793C94.1212 56.7647 94.3051 56.6727 94.4891 56.7034C94.7037 56.7034 94.8876 56.78 95.0409 56.9333C95.1942 57.0866 95.2861 57.2859 95.3168 57.5311C95.3781 57.7457 95.3321 57.9603 95.1788 58.1749C94.0139 59.5237 92.895 60.4281 91.822 60.8879C90.7491 61.3478 89.9214 61.501 89.3389 61.3478C89.2776 61.3478 89.2163 61.3631 89.155 61.3937C89.0936 61.3937 89.0477 61.4244 89.017 61.4857C88.6798 61.8229 88.3119 62.1448 87.9134 62.4514C87.3309 62.9112 86.7025 63.2791 86.0281 63.555C85.3843 63.8309 84.7405 63.9688 84.0967 63.9688C83.4836 63.9688 82.9012 63.8155 82.3494 63.509C81.7976 63.1718 81.3377 62.6046 80.9699 61.8076C80.51 60.7653 80.3414 59.6923 80.464 58.5887C80.5867 57.4851 80.9085 56.4275 81.4297 55.4159C81.9508 54.4042 82.6099 53.4845 83.407 52.6568C84.204 51.7985 85.0318 51.1087 85.8901 50.5876C86.1967 50.4343 86.4572 50.4343 86.6718 50.5876C86.7945 50.6795 86.9171 50.6642 87.0397 50.5416C87.285 50.235 87.5609 49.9591 87.8674 49.7139C88.2046 49.4686 88.5418 49.2694 88.8791 49.1161H88.925C89.5688 48.8708 90.0593 48.7482 90.3965 48.7482C91.3775 48.7482 92.0979 49.1161 92.5578 49.8518C93.0176 50.5876 93.2169 51.5532 93.1555 52.7488C92.9716 54.7108 92.3432 56.6268 91.2702 58.4968C91.2089 58.6194 91.2089 58.742 91.2702 58.8646C91.3622 58.9566 91.4848 58.9719 91.6381 58.9106C92.0673 58.7573 92.4658 58.5121 92.8337 58.1749C93.2015 57.807 93.5387 57.4545 93.8453 57.1173C93.8453 57.1173 93.8606 57.1019 93.8913 57.0713C93.9219 57.0713 93.9373 57.0406 93.9373 56.9793ZM84.7865 60.704C85.5529 60.7959 86.2886 60.658 86.9937 60.2901C87.147 60.1982 87.1623 60.0296 87.0397 59.7843C86.4879 59.0486 86.0894 58.2055 85.8441 57.2552C85.6909 56.7954 85.5989 56.3202 85.5682 55.8297C85.5376 55.3392 85.5529 54.8487 85.6142 54.3582C85.6142 54.2049 85.5529 54.0977 85.4303 54.0363C85.3077 53.9444 85.2004 53.975 85.1084 54.1283C84.3726 54.8641 83.8208 55.6764 83.453 56.5654C83.2997 56.9333 83.1771 57.3472 83.0851 57.807C82.9931 58.2362 82.9778 58.6654 83.0391 59.0946C83.1311 59.4931 83.2997 59.8456 83.5449 60.1522C83.8208 60.4587 84.2347 60.6427 84.7865 60.704ZM89.4768 57.761C89.7527 57.4545 90.0287 57.0253 90.3046 56.4735C90.6111 55.9217 90.8717 55.3392 91.0863 54.7261C91.3009 54.113 91.4388 53.5152 91.5001 52.9327C91.5921 52.3196 91.5614 51.8291 91.4082 51.4613C91.2549 51.124 91.0556 50.9554 90.8104 50.9554C90.5958 50.9248 90.3505 51.0014 90.0746 51.1854C89.8294 51.3386 89.5995 51.5686 89.3849 51.8751C89.1703 52.151 89.0017 52.4269 88.8791 52.7028C88.7258 53.132 88.6185 53.5918 88.5572 54.0823C88.5265 54.5422 88.5265 54.9867 88.5572 55.4159C88.5572 55.7837 88.5725 56.1669 88.6032 56.5654C88.6645 56.964 88.7718 57.3318 88.925 57.6691C88.9557 57.761 89.017 57.8377 89.109 57.899C89.2009 57.9603 89.3236 57.9143 89.4768 57.761Z" fill="#203757"/>
<path d="M94.0856 62.8652C93.9324 62.5587 93.8557 62.2674 93.8557 61.9915C93.8557 61.685 93.871 61.4704 93.9017 61.3478C93.9324 61.1332 93.9937 60.9492 94.0856 60.7959C94.1776 60.6427 94.3002 60.4894 94.4535 60.3361C94.6988 60.0909 95.0053 59.9223 95.3732 59.8303C95.5265 59.769 95.6951 59.7383 95.879 59.7383C96.0936 59.7383 96.2929 59.769 96.4768 59.8303C96.8447 59.9529 97.1665 60.1675 97.4424 60.4741C97.7184 60.75 97.887 61.0719 97.9483 61.4397C98.0402 61.8689 98.0096 62.2981 97.8563 62.7273C97.703 63.1564 97.4118 63.4783 96.9826 63.6929C96.5841 63.9382 96.1702 64.0301 95.741 63.9688C95.3119 63.9075 94.9287 63.7236 94.5915 63.417C94.5608 63.417 94.5455 63.4017 94.5455 63.371C94.3615 63.2178 94.2083 63.0492 94.0856 62.8652Z" fill="#203757"/>
</svg>
